<?xml version="1.0" encoding="UTF-8" standalone="no"?>
<!DOCTYPE svg PUBLIC "-//W3C//DTD SVG 1.1//EN"
 "http://www.w3.org/Graphics/SVG/1.1/DTD/svg11.dtd">
<!-- Generated by graphviz version 8.0.5 (20230430.1635)
 -->
<!-- Title: limes::hash::Hasher Pages: 1 -->
<svg width="257pt" height="212pt"
 viewBox="0.00 0.00 256.75 212.25" xmlns="http://www.w3.org/2000/svg" xmlns:xlink="http://www.w3.org/1999/xlink">
<g id="graph0" class="graph" transform="scale(1 1) rotate(0) translate(4 208.25)">
<title>limes::hash::Hasher</title>
<!-- Node1 -->
<g id="Node000001" class="node">
<title>Node1</title>
<g id="a_Node000001"><a xlink:title="A base class representing an object that calculates a hash function.">
<polygon fill="#999999" stroke="#666666" points="103.75,-111.25 0,-111.25 0,-92 103.75,-92 103.75,-111.25"/>
<text text-anchor="middle" x="51.88" y="-97.75" font-family="Helvetica,sans-Serif" font-size="10.00">limes::hash::Hasher</text>
</a>
</g>
</g>
<!-- Node2 -->
<g id="Node000002" class="node">
<title>Node2</title>
<g id="a_Node000002"><a xlink:href="classlimes_1_1hash_1_1_m_d5.html" target="_top" xlink:title="A Hasher object that calculates an MD5 hash.">
<polygon fill="white" stroke="#666666" points="240.88,-204.25 147.62,-204.25 147.62,-185 240.88,-185 240.88,-204.25"/>
<text text-anchor="middle" x="194.25" y="-190.75" font-family="Helvetica,sans-Serif" font-size="10.00">limes::hash::MD5</text>
</a>
</g>
</g>
<!-- Node1&#45;&gt;Node2 -->
<g id="edge1_Node000001_Node000002" class="edge">
<title>Node1&#45;&gt;Node2</title>
<g id="a_edge1_Node000001_Node000002"><a xlink:title=" ">
<path fill="none" stroke="#63b8ff" d="M68.99,-119.01C85.39,-135.8 112.23,-160.93 139.75,-176.62 145.11,-179.68 151.08,-182.33 157.02,-184.57"/>
<polygon fill="#63b8ff" stroke="#63b8ff" points="72.27,-117.33 62.83,-112.52 67.21,-122.16 72.27,-117.33"/>
</a>
</g>
</g>
<!-- Node3 -->
<g id="Node000003" class="node">
<title>Node3</title>
<g id="a_Node000003"><a xlink:href="classlimes_1_1hash_1_1_s_h_a1.html" target="_top" xlink:title="A Hasher object that calculates a SHA1 hash.">
<polygon fill="white" stroke="#666666" points="243.5,-167.25 145,-167.25 145,-148 243.5,-148 243.5,-167.25"/>
<text text-anchor="middle" x="194.25" y="-153.75" font-family="Helvetica,sans-Serif" font-size="10.00">limes::hash::SHA1</text>
</a>
</g>
</g>
<!-- Node1&#45;&gt;Node3 -->
<g id="edge2_Node000001_Node000003" class="edge">
<title>Node1&#45;&gt;Node3</title>
<g id="a_edge2_Node000001_Node000003"><a xlink:title=" ">
<path fill="none" stroke="#63b8ff" d="M84.07,-116.06C100.5,-123.46 121.05,-132.41 139.75,-139.62 146.79,-142.34 154.43,-145.05 161.68,-147.52"/>
<polygon fill="#63b8ff" stroke="#63b8ff" points="85.99,-112.63 75.43,-111.69 83.09,-119.01 85.99,-112.63"/>
</a>
</g>
</g>
<!-- Node4 -->
<g id="Node000004" class="node">
<title>Node4</title>
<g id="a_Node000004"><a xlink:href="classlimes_1_1hash_1_1_s_h_a224.html" target="_top" xlink:title="A Hasher object that calculates a SHA224 hash.">
<polygon fill="white" stroke="#666666" points="248.75,-130.25 139.75,-130.25 139.75,-111 248.75,-111 248.75,-130.25"/>
<text text-anchor="middle" x="194.25" y="-116.75" font-family="Helvetica,sans-Serif" font-size="10.00">limes::hash::SHA224</text>
</a>
</g>
</g>
<!-- Node1&#45;&gt;Node4 -->
<g id="edge3_Node000001_Node000004" class="edge">
<title>Node1&#45;&gt;Node4</title>
<g id="a_edge3_Node000001_Node000004"><a xlink:title=" ">
<path fill="none" stroke="#63b8ff" d="M114.73,-110C123.02,-111.12 131.48,-112.26 139.61,-113.37"/>
<polygon fill="#63b8ff" stroke="#63b8ff" points="115.33,-106.41 104.95,-108.54 114.39,-113.35 115.33,-106.41"/>
</a>
</g>
</g>
<!-- Node5 -->
<g id="Node000005" class="node">
<title>Node5</title>
<g id="a_Node000005"><a xlink:href="classlimes_1_1hash_1_1_s_h_a256.html" target="_top" xlink:title="A Hasher object that calculates a SHA256 hash.">
<polygon fill="white" stroke="#666666" points="248.75,-93.25 139.75,-93.25 139.75,-74 248.75,-74 248.75,-93.25"/>
<text text-anchor="middle" x="194.25" y="-79.75" font-family="Helvetica,sans-Serif" font-size="10.00">limes::hash::SHA256</text>
</a>
</g>
</g>
<!-- Node1&#45;&gt;Node5 -->
<g id="edge4_Node000001_Node000005" class="edge">
<title>Node1&#45;&gt;Node5</title>
<g id="a_edge4_Node000001_Node000005"><a xlink:title=" ">
<path fill="none" stroke="#63b8ff" d="M114.73,-93.69C123.02,-92.63 131.48,-91.55 139.61,-90.5"/>
<polygon fill="#63b8ff" stroke="#63b8ff" points="114.42,-90.33 104.95,-95.08 115.31,-97.28 114.42,-90.33"/>
</a>
</g>
</g>
<!-- Node6 -->
<g id="Node000006" class="node">
<title>Node6</title>
<g id="a_Node000006"><a xlink:href="classlimes_1_1hash_1_1_s_h_a384.html" target="_top" xlink:title="A Hasher object that calculates a SHA384 hash.">
<polygon fill="white" stroke="#666666" points="248.75,-56.25 139.75,-56.25 139.75,-37 248.75,-37 248.75,-56.25"/>
<text text-anchor="middle" x="194.25" y="-42.75" font-family="Helvetica,sans-Serif" font-size="10.00">limes::hash::SHA384</text>
</a>
</g>
</g>
<!-- Node1&#45;&gt;Node6 -->
<g id="edge5_Node000001_Node000006" class="edge">
<title>Node1&#45;&gt;Node6</title>
<g id="a_edge5_Node000001_Node000006"><a xlink:title=" ">
<path fill="none" stroke="#63b8ff" d="M85.24,-87.13C101.48,-80.04 121.53,-71.56 139.75,-64.62 146.89,-61.91 154.65,-59.17 161.99,-56.69"/>
<polygon fill="#63b8ff" stroke="#63b8ff" points="83.92,-84.33 76.18,-91.56 86.74,-90.73 83.92,-84.33"/>
</a>
</g>
</g>
<!-- Node7 -->
<g id="Node000007" class="node">
<title>Node7</title>
<g id="a_Node000007"><a xlink:href="classlimes_1_1hash_1_1_s_h_a512.html" target="_top" xlink:title="A Hasher object that calculates a SHA512 hash.">
<polygon fill="white" stroke="#666666" points="248.75,-19.25 139.75,-19.25 139.75,0 248.75,0 248.75,-19.25"/>
<text text-anchor="middle" x="194.25" y="-5.75" font-family="Helvetica,sans-Serif" font-size="10.00">limes::hash::SHA512</text>
</a>
</g>
</g>
<!-- Node1&#45;&gt;Node7 -->
<g id="edge6_Node000001_Node000007" class="edge">
<title>Node1&#45;&gt;Node7</title>
<g id="a_edge6_Node000001_Node000007"><a xlink:title=" ">
<path fill="none" stroke="#63b8ff" d="M69.76,-83.76C86.24,-67.21 112.73,-42.92 139.75,-27.62 145.12,-24.58 151.09,-21.95 157.04,-19.71"/>
<polygon fill="#63b8ff" stroke="#63b8ff" points="67.57,-81.01 63.1,-90.62 72.58,-85.9 67.57,-81.01"/>
</a>
</g>
</g>
</g>
</svg>
