<?xml version="1.0" encoding="UTF-8" standalone="no"?>
<!DOCTYPE svg PUBLIC "-//W3C//DTD SVG 1.1//EN"
 "http://www.w3.org/Graphics/SVG/1.1/DTD/svg11.dtd">
<!-- Generated by graphviz version 2.43.0 (0)
 -->
<!-- Title: Graphical Class Hierarchy Pages: 1 -->
<svg width="274pt" height="218pt"
 viewBox="0.00 0.00 274.00 218.00" xmlns="http://www.w3.org/2000/svg" xmlns:xlink="http://www.w3.org/1999/xlink">
<g id="graph0" class="graph" transform="scale(1 1) rotate(0) translate(4 214)">
<title>Graphical Class Hierarchy</title>
<polygon fill="white" stroke="transparent" points="-4,4 -4,-214 270,-214 270,4 -4,4"/>
<!-- Node0 -->
<g id="node1" class="node">
<title>Node0</title>
<g id="a_node1"><a xlink:href="classlimes_1_1hash_1_1Hasher.html" target="_top" xlink:title="A base class representing an object that calculates a hash function.">
<polygon fill="white" stroke="black" points="0,-95.5 0,-114.5 113,-114.5 113,-95.5 0,-95.5"/>
<text text-anchor="middle" x="56.5" y="-102.5" font-family="Helvetica,sans-Serif" font-size="10.00">limes::hash::Hasher</text>
</a>
</g>
</g>
<!-- Node1 -->
<g id="node2" class="node">
<title>Node1</title>
<g id="a_node2"><a xlink:href="classlimes_1_1hash_1_1MD5.html" target="_top" xlink:title="A Hasher object that calculates an MD5 hash.">
<polygon fill="white" stroke="black" points="157,-190.5 157,-209.5 258,-209.5 258,-190.5 157,-190.5"/>
<text text-anchor="middle" x="207.5" y="-197.5" font-family="Helvetica,sans-Serif" font-size="10.00">limes::hash::MD5</text>
</a>
</g>
</g>
<!-- Node0&#45;&gt;Node1 -->
<g id="edge1" class="edge">
<title>Node0&#45;&gt;Node1</title>
<path fill="none" stroke="midnightblue" d="M73.56,-121.6C90.81,-138.6 119.71,-164.77 149,-181 155.71,-184.72 163.27,-187.86 170.65,-190.46"/>
<polygon fill="midnightblue" stroke="midnightblue" points="76.03,-119.12 66.5,-114.51 71.07,-124.06 76.03,-119.12"/>
</g>
<!-- Node2 -->
<g id="node3" class="node">
<title>Node2</title>
<g id="a_node3"><a xlink:href="classlimes_1_1hash_1_1SHA1.html" target="_top" xlink:title="A Hasher object that calculates a SHA1 hash.">
<polygon fill="white" stroke="black" points="155,-152.5 155,-171.5 260,-171.5 260,-152.5 155,-152.5"/>
<text text-anchor="middle" x="207.5" y="-159.5" font-family="Helvetica,sans-Serif" font-size="10.00">limes::hash::SHA1</text>
</a>
</g>
</g>
<!-- Node0&#45;&gt;Node2 -->
<g id="edge2" class="edge">
<title>Node0&#45;&gt;Node2</title>
<path fill="none" stroke="midnightblue" d="M88.37,-118.49C106,-126.03 128.6,-135.4 149,-143 157.77,-146.26 167.39,-149.56 176.21,-152.46"/>
<polygon fill="midnightblue" stroke="midnightblue" points="89.7,-115.26 79.13,-114.52 86.94,-121.69 89.7,-115.26"/>
</g>
<!-- Node3 -->
<g id="node4" class="node">
<title>Node3</title>
<g id="a_node4"><a xlink:href="classlimes_1_1hash_1_1SHA224.html" target="_top" xlink:title="A Hasher object that calculates a SHA224 hash.">
<polygon fill="white" stroke="black" points="149,-114.5 149,-133.5 266,-133.5 266,-114.5 149,-114.5"/>
<text text-anchor="middle" x="207.5" y="-121.5" font-family="Helvetica,sans-Serif" font-size="10.00">limes::hash::SHA224</text>
</a>
</g>
</g>
<!-- Node0&#45;&gt;Node3 -->
<g id="edge3" class="edge">
<title>Node0&#45;&gt;Node3</title>
<path fill="none" stroke="midnightblue" d="M123.56,-113.42C131.97,-114.5 140.53,-115.59 148.79,-116.64"/>
<polygon fill="midnightblue" stroke="midnightblue" points="123.77,-109.92 113.41,-112.13 122.88,-116.87 123.77,-109.92"/>
</g>
<!-- Node4 -->
<g id="node5" class="node">
<title>Node4</title>
<g id="a_node5"><a xlink:href="classlimes_1_1hash_1_1SHA256.html" target="_top" xlink:title="A Hasher object that calculates a SHA256 hash.">
<polygon fill="white" stroke="black" points="149,-76.5 149,-95.5 266,-95.5 266,-76.5 149,-76.5"/>
<text text-anchor="middle" x="207.5" y="-83.5" font-family="Helvetica,sans-Serif" font-size="10.00">limes::hash::SHA256</text>
</a>
</g>
</g>
<!-- Node0&#45;&gt;Node4 -->
<g id="edge4" class="edge">
<title>Node0&#45;&gt;Node4</title>
<path fill="none" stroke="midnightblue" d="M123.56,-96.58C131.97,-95.5 140.53,-94.41 148.79,-93.36"/>
<polygon fill="midnightblue" stroke="midnightblue" points="122.88,-93.13 113.41,-97.87 123.77,-100.08 122.88,-93.13"/>
</g>
<!-- Node5 -->
<g id="node6" class="node">
<title>Node5</title>
<g id="a_node6"><a xlink:href="classlimes_1_1hash_1_1SHA384.html" target="_top" xlink:title="A Hasher object that calculates a SHA384 hash.">
<polygon fill="white" stroke="black" points="149,-38.5 149,-57.5 266,-57.5 266,-38.5 149,-38.5"/>
<text text-anchor="middle" x="207.5" y="-45.5" font-family="Helvetica,sans-Serif" font-size="10.00">limes::hash::SHA384</text>
</a>
</g>
</g>
<!-- Node0&#45;&gt;Node5 -->
<g id="edge5" class="edge">
<title>Node0&#45;&gt;Node5</title>
<path fill="none" stroke="midnightblue" d="M88.37,-91.51C106,-83.97 128.6,-74.6 149,-67 157.77,-63.74 167.39,-60.44 176.21,-57.54"/>
<polygon fill="midnightblue" stroke="midnightblue" points="86.94,-88.31 79.13,-95.48 89.7,-94.74 86.94,-88.31"/>
</g>
<!-- Node6 -->
<g id="node7" class="node">
<title>Node6</title>
<g id="a_node7"><a xlink:href="classlimes_1_1hash_1_1SHA512.html" target="_top" xlink:title="A Hasher object that calculates a SHA512 hash.">
<polygon fill="white" stroke="black" points="149,-0.5 149,-19.5 266,-19.5 266,-0.5 149,-0.5"/>
<text text-anchor="middle" x="207.5" y="-7.5" font-family="Helvetica,sans-Serif" font-size="10.00">limes::hash::SHA512</text>
</a>
</g>
</g>
<!-- Node0&#45;&gt;Node6 -->
<g id="edge6" class="edge">
<title>Node0&#45;&gt;Node6</title>
<path fill="none" stroke="midnightblue" d="M73.56,-88.4C90.81,-71.4 119.71,-45.23 149,-29 155.71,-25.28 163.27,-22.14 170.65,-19.54"/>
<polygon fill="midnightblue" stroke="midnightblue" points="71.07,-85.94 66.5,-95.49 76.03,-90.88 71.07,-85.94"/>
</g>
</g>
</svg>
