<?xml version="1.0" encoding="UTF-8" standalone="no"?>
<!DOCTYPE svg PUBLIC "-//W3C//DTD SVG 1.1//EN"
 "http://www.w3.org/Graphics/SVG/1.1/DTD/svg11.dtd">
<!-- Generated by graphviz version 8.0.5 (20230430.1635)
 -->
<!-- Title: lhashes_md5.h Pages: 1 -->
<svg width="413pt" height="138pt"
 viewBox="0.00 0.00 413.25 137.75" xmlns="http://www.w3.org/2000/svg" xmlns:xlink="http://www.w3.org/1999/xlink">
<g id="graph0" class="graph" transform="scale(1 1) rotate(0) translate(4 133.75)">
<title>lhashes_md5.h</title>
<!-- Node1 -->
<g id="Node000001" class="node">
<title>Node1</title>
<g id="a_Node000001"><a xlink:title="This file defines the hash::MD5 class.">
<polygon fill="#999999" stroke="#666666" points="214,-129.75 132,-129.75 132,-110.5 214,-110.5 214,-129.75"/>
<text text-anchor="middle" x="173" y="-116.25" font-family="Helvetica,sans-Serif" font-size="10.00">lhashes_md5.h</text>
</a>
</g>
</g>
<!-- Node2 -->
<g id="Node000002" class="node">
<title>Node2</title>
<g id="a_Node000002"><a xlink:title=" ">
<polygon fill="#e0e0e0" stroke="#999999" points="40,-19.25 0,-19.25 0,0 40,0 40,-19.25"/>
<text text-anchor="middle" x="20" y="-5.75" font-family="Helvetica,sans-Serif" font-size="10.00">string</text>
</a>
</g>
</g>
<!-- Node1&#45;&gt;Node2 -->
<g id="edge1_Node000001_Node000002" class="edge">
<title>Node1&#45;&gt;Node2</title>
<g id="a_edge1_Node000001_Node000002"><a xlink:title=" ">
<path fill="none" stroke="#63b8ff" d="M153.36,-110.06C136.25,-101.79 111.11,-88.72 91,-74.5 70.82,-60.23 50.07,-40.92 36.25,-27.28"/>
<polygon fill="#63b8ff" stroke="#63b8ff" points="39.15,-25.23 29.61,-20.62 34.19,-30.17 39.15,-25.23"/>
</a>
</g>
</g>
<!-- Node3 -->
<g id="Node000003" class="node">
<title>Node3</title>
<g id="a_Node000003"><a xlink:title=" ">
<polygon fill="#e0e0e0" stroke="#999999" points="123.75,-19.25 58.25,-19.25 58.25,0 123.75,0 123.75,-19.25"/>
<text text-anchor="middle" x="91" y="-5.75" font-family="Helvetica,sans-Serif" font-size="10.00">string_view</text>
</a>
</g>
</g>
<!-- Node1&#45;&gt;Node3 -->
<g id="edge2_Node000001_Node000003" class="edge">
<title>Node1&#45;&gt;Node3</title>
<g id="a_edge2_Node000001_Node000003"><a xlink:title=" ">
<path fill="none" stroke="#63b8ff" d="M150.27,-110.1C134.84,-102.8 115.26,-91 104,-74.5 95.21,-61.62 92.12,-44.09 91.13,-30.66"/>
<polygon fill="#63b8ff" stroke="#63b8ff" points="94.6,-30.58 90.72,-20.72 87.6,-30.85 94.6,-30.58"/>
</a>
</g>
</g>
<!-- Node4 -->
<g id="Node000004" class="node">
<title>Node4</title>
<g id="a_Node000004"><a xlink:title=" ">
<polygon fill="#e0e0e0" stroke="#999999" points="335.62,-74.5 290.38,-74.5 290.38,-55.25 335.62,-55.25 335.62,-74.5"/>
<text text-anchor="middle" x="313" y="-61" font-family="Helvetica,sans-Serif" font-size="10.00">cstdint</text>
</a>
</g>
</g>
<!-- Node1&#45;&gt;Node4 -->
<g id="edge3_Node000001_Node000004" class="edge">
<title>Node1&#45;&gt;Node4</title>
<g id="a_edge3_Node000001_Node000004"><a xlink:title=" ">
<path fill="none" stroke="#63b8ff" d="M196.75,-110.09C219.65,-101.38 254.51,-88.12 280.08,-78.4"/>
<polygon fill="#63b8ff" stroke="#63b8ff" points="280.96,-81.42 289.07,-74.6 278.47,-74.88 280.96,-81.42"/>
</a>
</g>
</g>
<!-- Node5 -->
<g id="Node000005" class="node">
<title>Node5</title>
<g id="a_Node000005"><a xlink:title=" ">
<polygon fill="#e0e0e0" stroke="#999999" points="405.25,-19.25 276.75,-19.25 276.75,0 405.25,0 405.25,-19.25"/>
<text text-anchor="middle" x="341" y="-5.75" font-family="Helvetica,sans-Serif" font-size="10.00">lhashes/lhashes_Export.h</text>
</a>
</g>
</g>
<!-- Node1&#45;&gt;Node5 -->
<g id="edge4_Node000001_Node000005" class="edge">
<title>Node1&#45;&gt;Node5</title>
<g id="a_edge4_Node000001_Node000005"><a xlink:title=" ">
<path fill="none" stroke="#63b8ff" d="M187.24,-110.11C201.4,-101.12 223.74,-86.92 243,-74.5 268.85,-57.84 298.4,-38.54 318.24,-25.55"/>
<polygon fill="#63b8ff" stroke="#63b8ff" points="319.95,-27.96 326.39,-19.56 316.11,-22.11 319.95,-27.96"/>
</a>
</g>
</g>
<!-- Node6 -->
<g id="Node000006" class="node">
<title>Node6</title>
<g id="a_Node000006"><a xlink:href="lhashes__hash_8h.html" target="_top" xlink:title="This file defines the hash::Hasher class and the hash::hash() free functions.">
<polygon fill="white" stroke="#666666" points="233.5,-74.5 112.5,-74.5 112.5,-55.25 233.5,-55.25 233.5,-74.5"/>
<text text-anchor="middle" x="173" y="-61" font-family="Helvetica,sans-Serif" font-size="10.00">lhashes/lhashes_hash.h</text>
</a>
</g>
</g>
<!-- Node1&#45;&gt;Node6 -->
<g id="edge5_Node000001_Node000006" class="edge">
<title>Node1&#45;&gt;Node6</title>
<g id="a_edge5_Node000001_Node000006"><a xlink:title=" ">
<path fill="none" stroke="#63b8ff" d="M173,-110.33C173,-103.67 173,-94.24 173,-85.78"/>
<polygon fill="#63b8ff" stroke="#63b8ff" points="176.5,-85.86 173,-75.86 169.5,-85.86 176.5,-85.86"/>
</a>
</g>
</g>
<!-- Node6&#45;&gt;Node2 -->
<g id="edge7_Node000006_Node000002" class="edge">
<title>Node6&#45;&gt;Node2</title>
<g id="a_edge7_Node000006_Node000002"><a xlink:title=" ">
<path fill="none" stroke="#63b8ff" d="M147.05,-54.84C120.28,-45.53 78.58,-31.01 50.32,-21.18"/>
<polygon fill="#63b8ff" stroke="#63b8ff" points="51.8,-17.64 41.21,-17.66 49.5,-24.25 51.8,-17.64"/>
</a>
</g>
</g>
<!-- Node6&#45;&gt;Node3 -->
<g id="edge8_Node000006_Node000003" class="edge">
<title>Node6&#45;&gt;Node3</title>
<g id="a_edge8_Node000006_Node000003"><a xlink:title=" ">
<path fill="none" stroke="#63b8ff" d="M159.09,-54.84C146.72,-46.81 128.4,-34.91 113.87,-25.48"/>
<polygon fill="#63b8ff" stroke="#63b8ff" points="116.27,-22.21 105.98,-19.7 112.46,-28.08 116.27,-22.21"/>
</a>
</g>
</g>
<!-- Node6&#45;&gt;Node5 -->
<g id="edge10_Node000006_Node000005" class="edge">
<title>Node6&#45;&gt;Node5</title>
<g id="a_edge10_Node000006_Node000005"><a xlink:title=" ">
<path fill="none" stroke="#63b8ff" d="M201.5,-54.84C229.13,-46.08 271.27,-32.73 302.01,-22.98"/>
<polygon fill="#63b8ff" stroke="#63b8ff" points="302.89,-26.06 311.36,-19.7 300.77,-19.39 302.89,-26.06"/>
</a>
</g>
</g>
<!-- Node7 -->
<g id="Node000007" class="node">
<title>Node7</title>
<g id="a_Node000007"><a xlink:title=" ">
<polygon fill="#e0e0e0" stroke="#999999" points="259.12,-19.25 210.88,-19.25 210.88,0 259.12,0 259.12,-19.25"/>
<text text-anchor="middle" x="235" y="-5.75" font-family="Helvetica,sans-Serif" font-size="10.00">cstddef</text>
</a>
</g>
</g>
<!-- Node6&#45;&gt;Node7 -->
<g id="edge6_Node000006_Node000007" class="edge">
<title>Node6&#45;&gt;Node7</title>
<g id="a_edge6_Node000006_Node000007"><a xlink:title=" ">
<path fill="none" stroke="#63b8ff" d="M183.52,-54.84C192.48,-47.15 205.57,-35.9 216.31,-26.68"/>
<polygon fill="#63b8ff" stroke="#63b8ff" points="218.33,-28.7 223.64,-19.52 213.77,-23.39 218.33,-28.7"/>
</a>
</g>
</g>
<!-- Node8 -->
<g id="Node000008" class="node">
<title>Node8</title>
<g id="a_Node000008"><a xlink:title=" ">
<polygon fill="#e0e0e0" stroke="#999999" points="192.62,-19.25 141.38,-19.25 141.38,0 192.62,0 192.62,-19.25"/>
<text text-anchor="middle" x="167" y="-5.75" font-family="Helvetica,sans-Serif" font-size="10.00">memory</text>
</a>
</g>
</g>
<!-- Node6&#45;&gt;Node8 -->
<g id="edge9_Node000006_Node000008" class="edge">
<title>Node6&#45;&gt;Node8</title>
<g id="a_edge9_Node000006_Node000008"><a xlink:title=" ">
<path fill="none" stroke="#63b8ff" d="M172.01,-55.08C171.26,-48.42 170.2,-38.99 169.24,-30.53"/>
<polygon fill="#63b8ff" stroke="#63b8ff" points="172.61,-30.15 168.01,-20.61 165.65,-30.94 172.61,-30.15"/>
</a>
</g>
</g>
</g>
</svg>
