<?xml version="1.0" encoding="UTF-8" standalone="no"?>
<!DOCTYPE svg PUBLIC "-//W3C//DTD SVG 1.1//EN"
 "http://www.w3.org/Graphics/SVG/1.1/DTD/svg11.dtd">
<!-- Generated by graphviz version 2.43.0 (0)
 -->
<!-- Title: lhashes_hash.h Pages: 1 -->
<!--zoomable 140 -->
<svg id="main" version="1.1" xmlns="http://www.w3.org/2000/svg" xmlns:xlink="http://www.w3.org/1999/xlink" xml:space="preserve" onload="init(evt)">
<style type="text/css"><![CDATA[
.edge:hover path { stroke: red; }
.edge:hover polygon { stroke: red; fill: red; }
]]></style>
<script type="text/javascript"><![CDATA[
var edges = document.getElementsByTagName('g');
if (edges && edges.length) {
  for (var i=0;i<edges.length;i++) {
    if (edges[i].id.substr(0,4)=='edge') {
      edges[i].setAttribute('class','edge');
    }
  }
}
]]></script>
        <defs>
                <circle id="rim" cx="0" cy="0" r="7"/>
                <circle id="rim2" cx="0" cy="0" r="3.5"/>
                <g id="zoomPlus">
                        <use xlink:href="#rim" fill="#404040">
                                <set attributeName="fill" to="#808080" begin="zoomplus.mouseover" end="zoomplus.mouseout"/>
                        </use>
                        <path d="M-4,0h8M0,-4v8" fill="none" stroke="white" stroke-width="1.5" pointer-events="none"/>
                </g>
                <g id="zoomMin">
                        <use xlink:href="#rim" fill="#404040">
                                <set attributeName="fill" to="#808080" begin="zoomminus.mouseover" end="zoomminus.mouseout"/>
                        </use>
                        <path d="M-4,0h8" fill="none" stroke="white" stroke-width="1.5" pointer-events="none"/>
                </g>
                <g id="dirArrow">
                        <path fill="none" stroke="white" stroke-width="1.5" d="M0,-3.0v7 M-2.5,-0.5L0,-3.0L2.5,-0.5"/>
                </g>
               <g id="resetDef">
                       <use xlink:href="#rim2" fill="#404040">
                               <set attributeName="fill" to="#808080" begin="reset.mouseover" end="reset.mouseout"/>
                       </use>
               </g>
        </defs>

<script type="text/javascript">
var viewWidth = 709;
var viewHeight = 140;
var sectionId = 'dynsection-1';
</script>
<script xlink:href="svgpan.js"/>
<svg id="graph" class="graph">
<g id="viewport">
<title>lhashes_hash.h</title>
<polygon fill="white" stroke="transparent" points="-4,4 -4,-136 705.32,-136 705.32,4 -4,4"/>
<!-- Node1 -->
<g id="node1" class="node">
<title>Node1</title>
<g id="a_node1"><a xlink:title="This file defines the hash::Hasher class and the hash::hash() free functions.">
<polygon fill="#bfbfbf" stroke="black" points="237.32,-112.5 237.32,-131.5 329.32,-131.5 329.32,-112.5 237.32,-112.5"/>
<text text-anchor="middle" x="283.32" y="-119.5" font-family="Helvetica,sans-Serif" font-size="10.00">lhashes_hash.h</text>
</a>
</g>
</g>
<!-- Node2 -->
<g id="node2" class="node">
<title>Node2</title>
<g id="a_node2"><a xlink:href="lhashes_8h.html" target="_top" xlink:title="The main header for the limes_hashes library.">
<polygon fill="white" stroke="black" points="251.82,-0.5 251.82,-19.5 314.82,-19.5 314.82,-0.5 251.82,-0.5"/>
<text text-anchor="middle" x="283.32" y="-7.5" font-family="Helvetica,sans-Serif" font-size="10.00">lhashes.h</text>
</a>
</g>
</g>
<!-- Node1&#45;&gt;Node2 -->
<g id="edge1" class="edge">
<title>Node1&#45;&gt;Node2</title>
<path fill="none" stroke="midnightblue" d="M226.63,-120.19C153.49,-117.8 32.29,-108.84 4.32,-76 -1.44,-69.23 -1.44,-62.77 4.32,-56 35.82,-19.02 185.49,-12.32 251.7,-11.19"/>
<polygon fill="midnightblue" stroke="midnightblue" points="226.96,-123.7 237.06,-120.49 227.16,-116.7 226.96,-123.7"/>
</g>
<!-- Node3 -->
<g id="node3" class="node">
<title>Node3</title>
<g id="a_node3"><a xlink:href="lhashes__md5_8h.html" target="_top" xlink:title="This file defines the hash::MD5 class.">
<polygon fill="white" stroke="black" points="13.32,-56.5 13.32,-75.5 103.32,-75.5 103.32,-56.5 13.32,-56.5"/>
<text text-anchor="middle" x="58.32" y="-63.5" font-family="Helvetica,sans-Serif" font-size="10.00">lhashes_md5.h</text>
</a>
</g>
</g>
<!-- Node1&#45;&gt;Node3 -->
<g id="edge2" class="edge">
<title>Node1&#45;&gt;Node3</title>
<path fill="none" stroke="midnightblue" d="M237.86,-110.09C195.35,-99.89 132.74,-84.86 93.81,-75.52"/>
<polygon fill="midnightblue" stroke="midnightblue" points="237.13,-113.51 247.67,-112.44 238.76,-106.71 237.13,-113.51"/>
</g>
<!-- Node4 -->
<g id="node4" class="node">
<title>Node4</title>
<g id="a_node4"><a xlink:href="lhashes__sha1_8h.html" target="_top" xlink:title="This file defines the hash::SHA1 class.">
<polygon fill="white" stroke="black" points="121.32,-56.5 121.32,-75.5 213.32,-75.5 213.32,-56.5 121.32,-56.5"/>
<text text-anchor="middle" x="167.32" y="-63.5" font-family="Helvetica,sans-Serif" font-size="10.00">lhashes_sha1.h</text>
</a>
</g>
</g>
<!-- Node1&#45;&gt;Node4 -->
<g id="edge4" class="edge">
<title>Node1&#45;&gt;Node4</title>
<path fill="none" stroke="midnightblue" d="M255.6,-108.1C233.93,-98.01 204.42,-84.27 185.62,-75.52"/>
<polygon fill="midnightblue" stroke="midnightblue" points="254.4,-111.4 264.94,-112.44 257.35,-105.05 254.4,-111.4"/>
</g>
<!-- Node5 -->
<g id="node5" class="node">
<title>Node5</title>
<g id="a_node5"><a xlink:href="lhashes__sha224_8h.html" target="_top" xlink:title="This file defines the hash::SHA224 class.">
<polygon fill="white" stroke="black" points="231.32,-56.5 231.32,-75.5 335.32,-75.5 335.32,-56.5 231.32,-56.5"/>
<text text-anchor="middle" x="283.32" y="-63.5" font-family="Helvetica,sans-Serif" font-size="10.00">lhashes_sha224.h</text>
</a>
</g>
</g>
<!-- Node1&#45;&gt;Node5 -->
<g id="edge6" class="edge">
<title>Node1&#45;&gt;Node5</title>
<path fill="none" stroke="midnightblue" d="M283.32,-101.8C283.32,-92.91 283.32,-82.78 283.32,-75.75"/>
<polygon fill="midnightblue" stroke="midnightblue" points="279.82,-102.08 283.32,-112.08 286.82,-102.08 279.82,-102.08"/>
</g>
<!-- Node6 -->
<g id="node6" class="node">
<title>Node6</title>
<g id="a_node6"><a xlink:href="lhashes__sha256_8h.html" target="_top" xlink:title="This file defines the hash::SHA256 class.">
<polygon fill="white" stroke="black" points="353.32,-56.5 353.32,-75.5 457.32,-75.5 457.32,-56.5 353.32,-56.5"/>
<text text-anchor="middle" x="405.32" y="-63.5" font-family="Helvetica,sans-Serif" font-size="10.00">lhashes_sha256.h</text>
</a>
</g>
</g>
<!-- Node1&#45;&gt;Node6 -->
<g id="edge8" class="edge">
<title>Node1&#45;&gt;Node6</title>
<path fill="none" stroke="midnightblue" d="M311.86,-108.37C334.71,-98.26 366.13,-84.35 386.08,-75.52"/>
<polygon fill="midnightblue" stroke="midnightblue" points="310.38,-105.2 302.65,-112.44 313.21,-111.6 310.38,-105.2"/>
</g>
<!-- Node7 -->
<g id="node7" class="node">
<title>Node7</title>
<g id="a_node7"><a xlink:href="lhashes__sha384_8h.html" target="_top" xlink:title="This file defines the hash::SHA384 class.">
<polygon fill="white" stroke="black" points="475.32,-56.5 475.32,-75.5 579.32,-75.5 579.32,-56.5 475.32,-56.5"/>
<text text-anchor="middle" x="527.32" y="-63.5" font-family="Helvetica,sans-Serif" font-size="10.00">lhashes_sha384.h</text>
</a>
</g>
</g>
<!-- Node1&#45;&gt;Node7 -->
<g id="edge10" class="edge">
<title>Node1&#45;&gt;Node7</title>
<path fill="none" stroke="midnightblue" d="M331.75,-110.28C377.86,-100.08 446.35,-84.92 488.84,-75.52"/>
<polygon fill="midnightblue" stroke="midnightblue" points="330.99,-106.87 321.98,-112.44 332.51,-113.7 330.99,-106.87"/>
</g>
<!-- Node8 -->
<g id="node8" class="node">
<title>Node8</title>
<g id="a_node8"><a xlink:href="lhashes__sha512_8h.html" target="_top" xlink:title="This file defines the hash::SHA512 class.">
<polygon fill="white" stroke="black" points="597.32,-56.5 597.32,-75.5 701.32,-75.5 701.32,-56.5 597.32,-56.5"/>
<text text-anchor="middle" x="649.32" y="-63.5" font-family="Helvetica,sans-Serif" font-size="10.00">lhashes_sha512.h</text>
</a>
</g>
</g>
<!-- Node1&#45;&gt;Node8 -->
<g id="edge12" class="edge">
<title>Node1&#45;&gt;Node8</title>
<path fill="none" stroke="midnightblue" d="M339.67,-112.69C409.89,-102.33 528.94,-84.76 597.15,-74.7"/>
<polygon fill="midnightblue" stroke="midnightblue" points="339.06,-109.24 329.68,-114.16 340.08,-116.16 339.06,-109.24"/>
</g>
<!-- Node3&#45;&gt;Node2 -->
<g id="edge3" class="edge">
<title>Node3&#45;&gt;Node2</title>
<path fill="none" stroke="midnightblue" d="M103.81,-54.08C147.67,-43.56 212.91,-27.9 251.48,-18.64"/>
<polygon fill="midnightblue" stroke="midnightblue" points="102.88,-50.71 93.97,-56.44 104.52,-57.51 102.88,-50.71"/>
</g>
<!-- Node4&#45;&gt;Node2 -->
<g id="edge5" class="edge">
<title>Node4&#45;&gt;Node2</title>
<path fill="none" stroke="midnightblue" d="M195.04,-52.1C216.71,-42.01 246.22,-28.27 265.03,-19.52"/>
<polygon fill="midnightblue" stroke="midnightblue" points="193.29,-49.05 185.7,-56.44 196.25,-55.4 193.29,-49.05"/>
</g>
<!-- Node5&#45;&gt;Node2 -->
<g id="edge7" class="edge">
<title>Node5&#45;&gt;Node2</title>
<path fill="none" stroke="midnightblue" d="M283.32,-45.8C283.32,-36.91 283.32,-26.78 283.32,-19.75"/>
<polygon fill="midnightblue" stroke="midnightblue" points="279.82,-46.08 283.32,-56.08 286.82,-46.08 279.82,-46.08"/>
</g>
<!-- Node6&#45;&gt;Node2 -->
<g id="edge9" class="edge">
<title>Node6&#45;&gt;Node2</title>
<path fill="none" stroke="midnightblue" d="M376.78,-52.37C353.94,-42.26 322.52,-28.35 302.56,-19.52"/>
<polygon fill="midnightblue" stroke="midnightblue" points="375.43,-55.6 385.99,-56.44 378.26,-49.2 375.43,-55.6"/>
</g>
<!-- Node7&#45;&gt;Node2 -->
<g id="edge11" class="edge">
<title>Node7&#45;&gt;Node2</title>
<path fill="none" stroke="midnightblue" d="M478.69,-54.24C430.1,-43.48 356.82,-27.27 315.19,-18.05"/>
<polygon fill="midnightblue" stroke="midnightblue" points="478.14,-57.7 488.66,-56.44 479.65,-50.87 478.14,-57.7"/>
</g>
<!-- Node8&#45;&gt;Node2 -->
<g id="edge13" class="edge">
<title>Node8&#45;&gt;Node2</title>
<path fill="none" stroke="midnightblue" d="M587,-55.81C508.26,-44.19 375.72,-24.63 315.19,-15.7"/>
<polygon fill="midnightblue" stroke="midnightblue" points="586.87,-59.32 597.27,-57.32 587.89,-52.4 586.87,-59.32"/>
</g>
</g>
</svg>
        <g id="navigator" transform="translate(0 0)" fill="#404254">
                <rect fill="#f2f5e9" fill-opacity="0.5" stroke="#606060" stroke-width=".5" x="0" y="0" width="60" height="60"/>
                <use id="zoomplus" xlink:href="#zoomPlus" x="17" y="9" onmousedown="handleZoom(evt,'in')"/>
                <use id="zoomminus" xlink:href="#zoomMin" x="42" y="9" onmousedown="handleZoom(evt,'out')"/>
                <use id="reset" xlink:href="#resetDef" x="30" y="36" onmousedown="handleReset()"/>
                <g id="arrowUp" xlink:href="#dirArrow" transform="translate(30 24)" onmousedown="handlePan(0,-1)">
                  <use xlink:href="#rim" fill="#404040">
                        <set attributeName="fill" to="#808080" begin="arrowUp.mouseover" end="arrowUp.mouseout"/>
                  </use>
                  <path fill="none" stroke="white" stroke-width="1.5" d="M0,-3.0v7 M-2.5,-0.5L0,-3.0L2.5,-0.5"/>
                </g>
                <g id="arrowRight" xlink:href="#dirArrow" transform="rotate(90) translate(36 -43)" onmousedown="handlePan(1,0)">
                  <use xlink:href="#rim" fill="#404040">
                        <set attributeName="fill" to="#808080" begin="arrowRight.mouseover" end="arrowRight.mouseout"/>
                  </use>
                  <path fill="none" stroke="white" stroke-width="1.5" d="M0,-3.0v7 M-2.5,-0.5L0,-3.0L2.5,-0.5"/>
                </g>
                <g id="arrowDown" xlink:href="#dirArrow" transform="rotate(180) translate(-30 -48)" onmousedown="handlePan(0,1)">
                  <use xlink:href="#rim" fill="#404040">
                        <set attributeName="fill" to="#808080" begin="arrowDown.mouseover" end="arrowDown.mouseout"/>
                  </use>
                  <path fill="none" stroke="white" stroke-width="1.5" d="M0,-3.0v7 M-2.5,-0.5L0,-3.0L2.5,-0.5"/>
                </g>
                <g id="arrowLeft" xlink:href="#dirArrow" transform="rotate(270) translate(-36 17)" onmousedown="handlePan(-1,0)">
                  <use xlink:href="#rim" fill="#404040">
                        <set attributeName="fill" to="#808080" begin="arrowLeft.mouseover" end="arrowLeft.mouseout"/>
                  </use>
                  <path fill="none" stroke="white" stroke-width="1.5" d="M0,-3.0v7 M-2.5,-0.5L0,-3.0L2.5,-0.5"/>
                </g>
        </g>
        <svg viewBox="0 0 15 15" width="100%" height="30px" preserveAspectRatio="xMaxYMin meet">
         <g id="arrow_out" transform="scale(0.3 0.3)">
          <a xlink:href="lhashes__hash_8h__dep__incl_org.svg" target="_base">
           <rect id="button" ry="5" rx="5" y="6" x="6" height="38" width="38"
                fill="#f2f5e9" fill-opacity="0.5" stroke="#606060" stroke-width="1.0"/>
           <path id="arrow"
             d="M 11.500037,31.436501 C 11.940474,20.09759 22.043105,11.32322 32.158766,21.979434 L 37.068811,17.246167 C 37.068811,17.246167 37.088388,32 37.088388,32 L 22.160133,31.978069 C 22.160133,31.978069 26.997745,27.140456 26.997745,27.140456 C 18.528582,18.264221 13.291696,25.230495 11.500037,31.436501 z"
             style="fill:#404040;"/>
          </a>
         </g>
        </svg>
</svg>
