<?xml version="1.0" encoding="UTF-8" standalone="no"?>
<!DOCTYPE svg PUBLIC "-//W3C//DTD SVG 1.1//EN"
 "http://www.w3.org/Graphics/SVG/1.1/DTD/svg11.dtd">
<!-- Generated by graphviz version 8.0.5 (20230430.1635)
 -->
<!-- Title: lhashes_sha224.h Pages: 1 -->
<svg width="413pt" height="138pt"
 viewBox="0.00 0.00 413.25 137.75" xmlns="http://www.w3.org/2000/svg" xmlns:xlink="http://www.w3.org/1999/xlink">
<g id="graph0" class="graph" transform="scale(1 1) rotate(0) translate(4 133.75)">
<title>lhashes_sha224.h</title>
<!-- Node1 -->
<g id="Node000001" class="node">
<title>Node1</title>
<g id="a_Node000001"><a xlink:title="This file defines the hash::SHA224 class.">
<polygon fill="#999999" stroke="#666666" points="264.38,-129.75 169.62,-129.75 169.62,-110.5 264.38,-110.5 264.38,-129.75"/>
<text text-anchor="middle" x="217" y="-116.25" font-family="Helvetica,sans-Serif" font-size="10.00">lhashes_sha224.h</text>
</a>
</g>
</g>
<!-- Node2 -->
<g id="Node000002" class="node">
<title>Node2</title>
<g id="a_Node000002"><a xlink:title=" ">
<polygon fill="#e0e0e0" stroke="#999999" points="40,-19.25 0,-19.25 0,0 40,0 40,-19.25"/>
<text text-anchor="middle" x="20" y="-5.75" font-family="Helvetica,sans-Serif" font-size="10.00">string</text>
</a>
</g>
</g>
<!-- Node1&#45;&gt;Node2 -->
<g id="edge1_Node000001_Node000002" class="edge">
<title>Node1&#45;&gt;Node2</title>
<g id="a_edge1_Node000001_Node000002"><a xlink:title=" ">
<path fill="none" stroke="#63b8ff" d="M178.85,-110.05C152.68,-102.81 117.78,-91.11 90,-74.5 68.72,-61.78 48.23,-41.89 34.98,-27.69"/>
<polygon fill="#63b8ff" stroke="#63b8ff" points="38.04,-25.75 28.72,-20.7 32.85,-30.46 38.04,-25.75"/>
</a>
</g>
</g>
<!-- Node3 -->
<g id="Node000003" class="node">
<title>Node3</title>
<g id="a_Node000003"><a xlink:title=" ">
<polygon fill="#e0e0e0" stroke="#999999" points="123.75,-19.25 58.25,-19.25 58.25,0 123.75,0 123.75,-19.25"/>
<text text-anchor="middle" x="91" y="-5.75" font-family="Helvetica,sans-Serif" font-size="10.00">string_view</text>
</a>
</g>
</g>
<!-- Node1&#45;&gt;Node3 -->
<g id="edge2_Node000001_Node000003" class="edge">
<title>Node1&#45;&gt;Node3</title>
<g id="a_edge2_Node000001_Node000003"><a xlink:title=" ">
<path fill="none" stroke="#63b8ff" d="M169.26,-111.22C146.32,-105 120.33,-93.98 104,-74.5 93.77,-62.29 90.86,-44.2 90.31,-30.38"/>
<polygon fill="#63b8ff" stroke="#63b8ff" points="93.81,-30.6 90.31,-20.59 86.81,-30.59 93.81,-30.6"/>
</a>
</g>
</g>
<!-- Node4 -->
<g id="Node000004" class="node">
<title>Node4</title>
<g id="a_Node000004"><a xlink:title=" ">
<polygon fill="#e0e0e0" stroke="#999999" points="335.62,-74.5 290.38,-74.5 290.38,-55.25 335.62,-55.25 335.62,-74.5"/>
<text text-anchor="middle" x="313" y="-61" font-family="Helvetica,sans-Serif" font-size="10.00">cstdint</text>
</a>
</g>
</g>
<!-- Node1&#45;&gt;Node4 -->
<g id="edge3_Node000001_Node000004" class="edge">
<title>Node1&#45;&gt;Node4</title>
<g id="a_edge3_Node000001_Node000004"><a xlink:title=" ">
<path fill="none" stroke="#63b8ff" d="M233.29,-110.09C248.04,-101.91 270.04,-89.71 287.19,-80.19"/>
<polygon fill="#63b8ff" stroke="#63b8ff" points="288.59,-82.86 295.64,-74.95 285.19,-76.74 288.59,-82.86"/>
</a>
</g>
</g>
<!-- Node5 -->
<g id="Node000005" class="node">
<title>Node5</title>
<g id="a_Node000005"><a xlink:title=" ">
<polygon fill="#e0e0e0" stroke="#999999" points="391.88,-74.5 354.12,-74.5 354.12,-55.25 391.88,-55.25 391.88,-74.5"/>
<text text-anchor="middle" x="373" y="-61" font-family="Helvetica,sans-Serif" font-size="10.00">array</text>
</a>
</g>
</g>
<!-- Node1&#45;&gt;Node5 -->
<g id="edge4_Node000001_Node000005" class="edge">
<title>Node1&#45;&gt;Node5</title>
<g id="a_edge4_Node000001_Node000005"><a xlink:title=" ">
<path fill="none" stroke="#63b8ff" d="M243.46,-110.09C271.21,-100.62 314.71,-85.77 343.54,-75.93"/>
<polygon fill="#63b8ff" stroke="#63b8ff" points="344.47,-78.97 352.8,-72.43 342.21,-72.35 344.47,-78.97"/>
</a>
</g>
</g>
<!-- Node6 -->
<g id="Node000006" class="node">
<title>Node6</title>
<g id="a_Node000006"><a xlink:title=" ">
<polygon fill="#e0e0e0" stroke="#999999" points="405.25,-19.25 276.75,-19.25 276.75,0 405.25,0 405.25,-19.25"/>
<text text-anchor="middle" x="341" y="-5.75" font-family="Helvetica,sans-Serif" font-size="10.00">lhashes/lhashes_Export.h</text>
</a>
</g>
</g>
<!-- Node1&#45;&gt;Node6 -->
<g id="edge5_Node000001_Node000006" class="edge">
<title>Node1&#45;&gt;Node6</title>
<g id="a_edge5_Node000001_Node000006"><a xlink:title=" ">
<path fill="none" stroke="#63b8ff" d="M225.31,-110.03C237.17,-97.26 259.84,-73.51 281,-55.25 293.1,-44.81 307.43,-34.09 319.06,-25.78"/>
<polygon fill="#63b8ff" stroke="#63b8ff" points="320.55,-28.3 326.71,-19.68 316.52,-22.58 320.55,-28.3"/>
</a>
</g>
</g>
<!-- Node7 -->
<g id="Node000007" class="node">
<title>Node7</title>
<g id="a_Node000007"><a xlink:href="lhashes__hash_8h.html" target="_top" xlink:title="This file defines the hash::Hasher class and the hash::hash() free functions.">
<polygon fill="white" stroke="#666666" points="233.5,-74.5 112.5,-74.5 112.5,-55.25 233.5,-55.25 233.5,-74.5"/>
<text text-anchor="middle" x="173" y="-61" font-family="Helvetica,sans-Serif" font-size="10.00">lhashes/lhashes_hash.h</text>
</a>
</g>
</g>
<!-- Node1&#45;&gt;Node7 -->
<g id="edge6_Node000001_Node000007" class="edge">
<title>Node1&#45;&gt;Node7</title>
<g id="a_edge6_Node000001_Node000007"><a xlink:title=" ">
<path fill="none" stroke="#63b8ff" d="M209.73,-110.33C203.66,-102.98 194.8,-92.26 187.31,-83.19"/>
<polygon fill="#63b8ff" stroke="#63b8ff" points="189.49,-81.34 180.42,-75.86 184.1,-85.8 189.49,-81.34"/>
</a>
</g>
</g>
<!-- Node7&#45;&gt;Node2 -->
<g id="edge8_Node000007_Node000002" class="edge">
<title>Node7&#45;&gt;Node2</title>
<g id="a_edge8_Node000007_Node000002"><a xlink:title=" ">
<path fill="none" stroke="#63b8ff" d="M147.05,-54.84C120.28,-45.53 78.58,-31.01 50.32,-21.18"/>
<polygon fill="#63b8ff" stroke="#63b8ff" points="51.8,-17.64 41.21,-17.66 49.5,-24.25 51.8,-17.64"/>
</a>
</g>
</g>
<!-- Node7&#45;&gt;Node3 -->
<g id="edge9_Node000007_Node000003" class="edge">
<title>Node7&#45;&gt;Node3</title>
<g id="a_edge9_Node000007_Node000003"><a xlink:title=" ">
<path fill="none" stroke="#63b8ff" d="M159.09,-54.84C146.72,-46.81 128.4,-34.91 113.87,-25.48"/>
<polygon fill="#63b8ff" stroke="#63b8ff" points="116.27,-22.21 105.98,-19.7 112.46,-28.08 116.27,-22.21"/>
</a>
</g>
</g>
<!-- Node7&#45;&gt;Node6 -->
<g id="edge11_Node000007_Node000006" class="edge">
<title>Node7&#45;&gt;Node6</title>
<g id="a_edge11_Node000007_Node000006"><a xlink:title=" ">
<path fill="none" stroke="#63b8ff" d="M201.5,-54.84C229.13,-46.08 271.27,-32.73 302.01,-22.98"/>
<polygon fill="#63b8ff" stroke="#63b8ff" points="302.89,-26.06 311.36,-19.7 300.77,-19.39 302.89,-26.06"/>
</a>
</g>
</g>
<!-- Node8 -->
<g id="Node000008" class="node">
<title>Node8</title>
<g id="a_Node000008"><a xlink:title=" ">
<polygon fill="#e0e0e0" stroke="#999999" points="259.12,-19.25 210.88,-19.25 210.88,0 259.12,0 259.12,-19.25"/>
<text text-anchor="middle" x="235" y="-5.75" font-family="Helvetica,sans-Serif" font-size="10.00">cstddef</text>
</a>
</g>
</g>
<!-- Node7&#45;&gt;Node8 -->
<g id="edge7_Node000007_Node000008" class="edge">
<title>Node7&#45;&gt;Node8</title>
<g id="a_edge7_Node000007_Node000008"><a xlink:title=" ">
<path fill="none" stroke="#63b8ff" d="M183.52,-54.84C192.48,-47.15 205.57,-35.9 216.31,-26.68"/>
<polygon fill="#63b8ff" stroke="#63b8ff" points="218.33,-28.7 223.64,-19.52 213.77,-23.39 218.33,-28.7"/>
</a>
</g>
</g>
<!-- Node9 -->
<g id="Node000009" class="node">
<title>Node9</title>
<g id="a_Node000009"><a xlink:title=" ">
<polygon fill="#e0e0e0" stroke="#999999" points="192.62,-19.25 141.38,-19.25 141.38,0 192.62,0 192.62,-19.25"/>
<text text-anchor="middle" x="167" y="-5.75" font-family="Helvetica,sans-Serif" font-size="10.00">memory</text>
</a>
</g>
</g>
<!-- Node7&#45;&gt;Node9 -->
<g id="edge10_Node000007_Node000009" class="edge">
<title>Node7&#45;&gt;Node9</title>
<g id="a_edge10_Node000007_Node000009"><a xlink:title=" ">
<path fill="none" stroke="#63b8ff" d="M172.01,-55.08C171.26,-48.42 170.2,-38.99 169.24,-30.53"/>
<polygon fill="#63b8ff" stroke="#63b8ff" points="172.61,-30.15 168.01,-20.61 165.65,-30.94 172.61,-30.15"/>
</a>
</g>
</g>
</g>
</svg>
