<?xml version="1.0" encoding="UTF-8" standalone="no"?>
<!DOCTYPE svg PUBLIC "-//W3C//DTD SVG 1.1//EN"
 "http://www.w3.org/Graphics/SVG/1.1/DTD/svg11.dtd">
<!-- Generated by graphviz version 2.43.0 (0)
 -->
<!-- Title: lhashes_sha224.h Pages: 1 -->
<svg width="450pt" height="140pt"
 viewBox="0.00 0.00 450.00 140.00" xmlns="http://www.w3.org/2000/svg" xmlns:xlink="http://www.w3.org/1999/xlink">
<g id="graph0" class="graph" transform="scale(1 1) rotate(0) translate(4 136)">
<title>lhashes_sha224.h</title>
<polygon fill="white" stroke="transparent" points="-4,4 -4,-136 446,-136 446,4 -4,4"/>
<!-- Node1 -->
<g id="node1" class="node">
<title>Node1</title>
<g id="a_node1"><a xlink:title="This file defines the hash::SHA224 class.">
<polygon fill="#bfbfbf" stroke="black" points="183,-112.5 183,-131.5 287,-131.5 287,-112.5 183,-112.5"/>
<text text-anchor="middle" x="235" y="-119.5" font-family="Helvetica,sans-Serif" font-size="10.00">lhashes_sha224.h</text>
</a>
</g>
</g>
<!-- Node2 -->
<g id="node2" class="node">
<title>Node2</title>
<g id="a_node2"><a xlink:title=" ">
<polygon fill="white" stroke="#bfbfbf" points="0,-0.5 0,-19.5 44,-19.5 44,-0.5 0,-0.5"/>
<text text-anchor="middle" x="22" y="-7.5" font-family="Helvetica,sans-Serif" font-size="10.00">string</text>
</a>
</g>
</g>
<!-- Node1&#45;&gt;Node2 -->
<g id="edge1" class="edge">
<title>Node1&#45;&gt;Node2</title>
<path fill="none" stroke="midnightblue" d="M195.83,-112.47C167.47,-105.29 128.87,-93.37 98,-76 74.51,-62.78 51.56,-41.69 37.13,-27.14"/>
<polygon fill="midnightblue" stroke="midnightblue" points="39.52,-24.57 30.05,-19.82 34.49,-29.44 39.52,-24.57"/>
</g>
<!-- Node3 -->
<g id="node3" class="node">
<title>Node3</title>
<g id="a_node3"><a xlink:title=" ">
<polygon fill="white" stroke="#bfbfbf" points="62.5,-0.5 62.5,-19.5 135.5,-19.5 135.5,-0.5 62.5,-0.5"/>
<text text-anchor="middle" x="99" y="-7.5" font-family="Helvetica,sans-Serif" font-size="10.00">string_view</text>
</a>
</g>
</g>
<!-- Node1&#45;&gt;Node3 -->
<g id="edge2" class="edge">
<title>Node1&#45;&gt;Node3</title>
<path fill="none" stroke="midnightblue" d="M182.71,-113.56C158.21,-107.44 130.61,-96.29 113,-76 102.01,-63.34 98.99,-44.14 98.42,-29.88"/>
<polygon fill="midnightblue" stroke="midnightblue" points="101.92,-29.72 98.4,-19.73 94.92,-29.74 101.92,-29.72"/>
</g>
<!-- Node4 -->
<g id="node4" class="node">
<title>Node4</title>
<g id="a_node4"><a xlink:title=" ">
<polygon fill="white" stroke="#bfbfbf" points="310,-56.5 310,-75.5 360,-75.5 360,-56.5 310,-56.5"/>
<text text-anchor="middle" x="335" y="-63.5" font-family="Helvetica,sans-Serif" font-size="10.00">cstdint</text>
</a>
</g>
</g>
<!-- Node1&#45;&gt;Node4 -->
<g id="edge3" class="edge">
<title>Node1&#45;&gt;Node4</title>
<path fill="none" stroke="midnightblue" d="M251.07,-112.32C266.96,-103.74 291.51,-90.49 309.96,-80.52"/>
<polygon fill="midnightblue" stroke="midnightblue" points="311.84,-83.49 318.97,-75.65 308.51,-77.33 311.84,-83.49"/>
</g>
<!-- Node5 -->
<g id="node5" class="node">
<title>Node5</title>
<g id="a_node5"><a xlink:title=" ">
<polygon fill="white" stroke="#bfbfbf" points="378,-56.5 378,-75.5 420,-75.5 420,-56.5 378,-56.5"/>
<text text-anchor="middle" x="399" y="-63.5" font-family="Helvetica,sans-Serif" font-size="10.00">array</text>
</a>
</g>
</g>
<!-- Node1&#45;&gt;Node5 -->
<g id="edge4" class="edge">
<title>Node1&#45;&gt;Node5</title>
<path fill="none" stroke="midnightblue" d="M260.99,-112.44C290.04,-102.88 337.05,-87.4 368,-77.21"/>
<polygon fill="midnightblue" stroke="midnightblue" points="369.43,-80.42 377.83,-73.97 367.24,-73.77 369.43,-80.42"/>
</g>
<!-- Node6 -->
<g id="node6" class="node">
<title>Node6</title>
<g id="a_node6"><a xlink:title=" ">
<polygon fill="white" stroke="#bfbfbf" points="302,-0.5 302,-19.5 442,-19.5 442,-0.5 302,-0.5"/>
<text text-anchor="middle" x="372" y="-7.5" font-family="Helvetica,sans-Serif" font-size="10.00">lhashes/lhashes_Export.h</text>
</a>
</g>
</g>
<!-- Node1&#45;&gt;Node6 -->
<g id="edge5" class="edge">
<title>Node1&#45;&gt;Node6</title>
<path fill="none" stroke="midnightblue" d="M242.61,-112.41C254.39,-99.38 278.08,-74.21 301,-56 315.72,-44.31 333.6,-32.99 347.73,-24.63"/>
<polygon fill="midnightblue" stroke="midnightblue" points="349.52,-27.64 356.41,-19.59 346,-21.59 349.52,-27.64"/>
</g>
<!-- Node7 -->
<g id="node7" class="node">
<title>Node7</title>
<g id="a_node7"><a xlink:href="lhashes__hash_8h.html" target="_top" xlink:title="This file defines the hash::Hasher class and the hash::hash() free functions.">
<polygon fill="white" stroke="black" points="122,-56.5 122,-75.5 254,-75.5 254,-56.5 122,-56.5"/>
<text text-anchor="middle" x="188" y="-63.5" font-family="Helvetica,sans-Serif" font-size="10.00">lhashes/lhashes_hash.h</text>
</a>
</g>
</g>
<!-- Node1&#45;&gt;Node7 -->
<g id="edge6" class="edge">
<title>Node1&#45;&gt;Node7</title>
<path fill="none" stroke="midnightblue" d="M227.24,-112.08C220.46,-104.3 210.46,-92.8 202.24,-83.37"/>
<polygon fill="midnightblue" stroke="midnightblue" points="204.82,-81 195.62,-75.75 199.54,-85.59 204.82,-81"/>
</g>
<!-- Node7&#45;&gt;Node2 -->
<g id="edge8" class="edge">
<title>Node7&#45;&gt;Node2</title>
<path fill="none" stroke="midnightblue" d="M161.7,-56.44C132.41,-46.92 85.09,-31.52 53.76,-21.33"/>
<polygon fill="midnightblue" stroke="midnightblue" points="54.79,-17.99 44.2,-18.22 52.62,-24.64 54.79,-17.99"/>
</g>
<!-- Node7&#45;&gt;Node3 -->
<g id="edge9" class="edge">
<title>Node7&#45;&gt;Node3</title>
<path fill="none" stroke="midnightblue" d="M173.7,-56.32C159.82,-47.9 138.51,-34.97 122.2,-25.07"/>
<polygon fill="midnightblue" stroke="midnightblue" points="123.63,-21.85 113.26,-19.65 120,-27.83 123.63,-21.85"/>
</g>
<!-- Node7&#45;&gt;Node6 -->
<g id="edge11" class="edge">
<title>Node7&#45;&gt;Node6</title>
<path fill="none" stroke="midnightblue" d="M217.16,-56.44C248.51,-47.24 298.53,-32.56 333.2,-22.39"/>
<polygon fill="midnightblue" stroke="midnightblue" points="334.37,-25.69 342.98,-19.52 332.4,-18.97 334.37,-25.69"/>
</g>
<!-- Node8 -->
<g id="node8" class="node">
<title>Node8</title>
<g id="a_node8"><a xlink:title=" ">
<polygon fill="white" stroke="#bfbfbf" points="230.5,-0.5 230.5,-19.5 283.5,-19.5 283.5,-0.5 230.5,-0.5"/>
<text text-anchor="middle" x="257" y="-7.5" font-family="Helvetica,sans-Serif" font-size="10.00">cstddef</text>
</a>
</g>
</g>
<!-- Node7&#45;&gt;Node8 -->
<g id="edge7" class="edge">
<title>Node7&#45;&gt;Node8</title>
<path fill="none" stroke="midnightblue" d="M199.09,-56.32C209.49,-48.18 225.26,-35.84 237.72,-26.09"/>
<polygon fill="midnightblue" stroke="midnightblue" points="239.99,-28.75 245.71,-19.83 235.68,-23.24 239.99,-28.75"/>
</g>
<!-- Node9 -->
<g id="node9" class="node">
<title>Node9</title>
<g id="a_node9"><a xlink:title=" ">
<polygon fill="white" stroke="#bfbfbf" points="154,-0.5 154,-19.5 212,-19.5 212,-0.5 154,-0.5"/>
<text text-anchor="middle" x="183" y="-7.5" font-family="Helvetica,sans-Serif" font-size="10.00">memory</text>
</a>
</g>
</g>
<!-- Node7&#45;&gt;Node9 -->
<g id="edge10" class="edge">
<title>Node7&#45;&gt;Node9</title>
<path fill="none" stroke="midnightblue" d="M187.17,-56.08C186.52,-49.01 185.58,-38.86 184.76,-29.99"/>
<polygon fill="midnightblue" stroke="midnightblue" points="188.22,-29.39 183.81,-19.75 181.25,-30.03 188.22,-29.39"/>
</g>
</g>
</svg>
