<?xml version="1.0" encoding="UTF-8" standalone="no"?>
<!DOCTYPE svg PUBLIC "-//W3C//DTD SVG 1.1//EN"
 "http://www.w3.org/Graphics/SVG/1.1/DTD/svg11.dtd">
<!-- Generated by graphviz version 2.43.0 (0)
 -->
<!-- Title: lhashes.h Pages: 1 -->
<!--zoomable 196 -->
<svg id="main" version="1.1" xmlns="http://www.w3.org/2000/svg" xmlns:xlink="http://www.w3.org/1999/xlink" xml:space="preserve" onload="init(evt)">
<style type="text/css"><![CDATA[
.edge:hover path { stroke: red; }
.edge:hover polygon { stroke: red; fill: red; }
]]></style>
<script type="text/javascript"><![CDATA[
var edges = document.getElementsByTagName('g');
if (edges && edges.length) {
  for (var i=0;i<edges.length;i++) {
    if (edges[i].id.substr(0,4)=='edge') {
      edges[i].setAttribute('class','edge');
    }
  }
}
]]></script>
        <defs>
                <circle id="rim" cx="0" cy="0" r="7"/>
                <circle id="rim2" cx="0" cy="0" r="3.5"/>
                <g id="zoomPlus">
                        <use xlink:href="#rim" fill="#404040">
                                <set attributeName="fill" to="#808080" begin="zoomplus.mouseover" end="zoomplus.mouseout"/>
                        </use>
                        <path d="M-4,0h8M0,-4v8" fill="none" stroke="white" stroke-width="1.5" pointer-events="none"/>
                </g>
                <g id="zoomMin">
                        <use xlink:href="#rim" fill="#404040">
                                <set attributeName="fill" to="#808080" begin="zoomminus.mouseover" end="zoomminus.mouseout"/>
                        </use>
                        <path d="M-4,0h8" fill="none" stroke="white" stroke-width="1.5" pointer-events="none"/>
                </g>
                <g id="dirArrow">
                        <path fill="none" stroke="white" stroke-width="1.5" d="M0,-3.0v7 M-2.5,-0.5L0,-3.0L2.5,-0.5"/>
                </g>
               <g id="resetDef">
                       <use xlink:href="#rim2" fill="#404040">
                               <set attributeName="fill" to="#808080" begin="reset.mouseover" end="reset.mouseout"/>
                       </use>
               </g>
        </defs>

<script type="text/javascript">
var viewWidth = 865;
var viewHeight = 196;
var sectionId = 'dynsection-0';
</script>
<script xlink:href="svgpan.js"/>
<svg id="graph" class="graph">
<g id="viewport">
<title>lhashes.h</title>
<polygon fill="white" stroke="transparent" points="-4,4 -4,-192 861.34,-192 861.34,4 -4,4"/>
<!-- Node1 -->
<g id="node1" class="node">
<title>Node1</title>
<g id="a_node1"><a xlink:title="The main header for the limes_hashes library.">
<polygon fill="#bfbfbf" stroke="black" points="345.51,-168.5 345.51,-187.5 408.51,-187.5 408.51,-168.5 345.51,-168.5"/>
<text text-anchor="middle" x="377.01" y="-175.5" font-family="Helvetica,sans-Serif" font-size="10.00">lhashes.h</text>
</a>
</g>
</g>
<!-- Node2 -->
<g id="node2" class="node">
<title>Node2</title>
<g id="a_node2"><a xlink:href="lhashes__hash_8h.html" target="_top" xlink:title="This file defines the hash::Hasher class and the hash::hash() free functions.">
<polygon fill="white" stroke="black" points="160.01,-56.5 160.01,-75.5 258.01,-75.5 258.01,-56.5 160.01,-56.5"/>
<text text-anchor="middle" x="209.01" y="-63.5" font-family="Helvetica,sans-Serif" font-size="10.00">./lhashes_hash.h</text>
</a>
</g>
</g>
<!-- Node1&#45;&gt;Node2 -->
<g id="edge1" class="edge">
<title>Node1&#45;&gt;Node2</title>
<path fill="none" stroke="midnightblue" d="M345.49,-173.73C298.88,-168.17 215.1,-155.17 197.01,-132 186.56,-118.61 192.21,-98.96 198.84,-84.78"/>
<polygon fill="midnightblue" stroke="midnightblue" points="202.11,-86.07 203.62,-75.58 195.9,-82.84 202.11,-86.07"/>
</g>
<!-- Node8 -->
<g id="node8" class="node">
<title>Node8</title>
<g id="a_node8"><a xlink:href="lhashes__md5_8h.html" target="_top" xlink:title="This file defines the hash::MD5 class.">
<polygon fill="white" stroke="black" points="578.01,-112.5 578.01,-131.5 674.01,-131.5 674.01,-112.5 578.01,-112.5"/>
<text text-anchor="middle" x="626.01" y="-119.5" font-family="Helvetica,sans-Serif" font-size="10.00">./lhashes_md5.h</text>
</a>
</g>
</g>
<!-- Node1&#45;&gt;Node8 -->
<g id="edge7" class="edge">
<title>Node1&#45;&gt;Node8</title>
<path fill="none" stroke="midnightblue" d="M408.55,-170.16C450.91,-160.97 526.63,-144.55 576.6,-133.72"/>
<polygon fill="midnightblue" stroke="midnightblue" points="577.51,-137.1 586.54,-131.56 576.02,-130.26 577.51,-137.1"/>
</g>
<!-- Node10 -->
<g id="node10" class="node">
<title>Node10</title>
<g id="a_node10"><a xlink:href="lhashes__sha1_8h.html" target="_top" xlink:title="This file defines the hash::SHA1 class.">
<polygon fill="white" stroke="black" points="206.01,-112.5 206.01,-131.5 304.01,-131.5 304.01,-112.5 206.01,-112.5"/>
<text text-anchor="middle" x="255.01" y="-119.5" font-family="Helvetica,sans-Serif" font-size="10.00">./lhashes_sha1.h</text>
</a>
</g>
</g>
<!-- Node1&#45;&gt;Node10 -->
<g id="edge13" class="edge">
<title>Node1&#45;&gt;Node10</title>
<path fill="none" stroke="midnightblue" d="M357.68,-168.44C337.69,-159.6 306.27,-145.69 283.45,-135.59"/>
<polygon fill="midnightblue" stroke="midnightblue" points="284.82,-132.36 274.26,-131.52 281.98,-138.76 284.82,-132.36"/>
</g>
<!-- Node11 -->
<g id="node11" class="node">
<title>Node11</title>
<g id="a_node11"><a xlink:href="lhashes__sha224_8h.html" target="_top" xlink:title="This file defines the hash::SHA224 class.">
<polygon fill="white" stroke="black" points="692.01,-112.5 692.01,-131.5 802.01,-131.5 802.01,-112.5 692.01,-112.5"/>
<text text-anchor="middle" x="747.01" y="-119.5" font-family="Helvetica,sans-Serif" font-size="10.00">./lhashes_sha224.h</text>
</a>
</g>
</g>
<!-- Node1&#45;&gt;Node11 -->
<g id="edge19" class="edge">
<title>Node1&#45;&gt;Node11</title>
<path fill="none" stroke="midnightblue" d="M408.56,-172.4C468.89,-163.59 601.74,-144.2 681.89,-132.51"/>
<polygon fill="midnightblue" stroke="midnightblue" points="682.48,-135.96 691.87,-131.05 681.47,-129.03 682.48,-135.96"/>
</g>
<!-- Node13 -->
<g id="node13" class="node">
<title>Node13</title>
<g id="a_node13"><a xlink:href="lhashes__sha256_8h.html" target="_top" xlink:title="This file defines the hash::SHA256 class.">
<polygon fill="white" stroke="black" points="40.01,-112.5 40.01,-131.5 150.01,-131.5 150.01,-112.5 40.01,-112.5"/>
<text text-anchor="middle" x="95.01" y="-119.5" font-family="Helvetica,sans-Serif" font-size="10.00">./lhashes_sha256.h</text>
</a>
</g>
</g>
<!-- Node1&#45;&gt;Node13 -->
<g id="edge26" class="edge">
<title>Node1&#45;&gt;Node13</title>
<path fill="none" stroke="midnightblue" d="M345.49,-170.96C298.17,-161.9 208.14,-144.66 149.89,-133.51"/>
<polygon fill="midnightblue" stroke="midnightblue" points="150.24,-130.01 139.76,-131.57 148.92,-136.89 150.24,-130.01"/>
</g>
<!-- Node14 -->
<g id="node14" class="node">
<title>Node14</title>
<g id="a_node14"><a xlink:href="lhashes__sha384_8h.html" target="_top" xlink:title="This file defines the hash::SHA384 class.">
<polygon fill="white" stroke="black" points="450.01,-112.5 450.01,-131.5 560.01,-131.5 560.01,-112.5 450.01,-112.5"/>
<text text-anchor="middle" x="505.01" y="-119.5" font-family="Helvetica,sans-Serif" font-size="10.00">./lhashes_sha384.h</text>
</a>
</g>
</g>
<!-- Node1&#45;&gt;Node14 -->
<g id="edge32" class="edge">
<title>Node1&#45;&gt;Node14</title>
<path fill="none" stroke="midnightblue" d="M397.3,-168.44C418.36,-159.56 451.53,-145.56 475.5,-135.45"/>
<polygon fill="midnightblue" stroke="midnightblue" points="476.97,-138.63 484.83,-131.52 474.25,-132.18 476.97,-138.63"/>
</g>
<!-- Node15 -->
<g id="node15" class="node">
<title>Node15</title>
<g id="a_node15"><a xlink:href="lhashes__sha512_8h.html" target="_top" xlink:title="This file defines the hash::SHA512 class.">
<polygon fill="white" stroke="black" points="322.01,-112.5 322.01,-131.5 432.01,-131.5 432.01,-112.5 322.01,-112.5"/>
<text text-anchor="middle" x="377.01" y="-119.5" font-family="Helvetica,sans-Serif" font-size="10.00">./lhashes_sha512.h</text>
</a>
</g>
</g>
<!-- Node1&#45;&gt;Node15 -->
<g id="edge38" class="edge">
<title>Node1&#45;&gt;Node15</title>
<path fill="none" stroke="midnightblue" d="M377.01,-168.08C377.01,-161.01 377.01,-150.86 377.01,-141.99"/>
<polygon fill="midnightblue" stroke="midnightblue" points="380.51,-141.75 377.01,-131.75 373.51,-141.75 380.51,-141.75"/>
</g>
<!-- Node3 -->
<g id="node3" class="node">
<title>Node3</title>
<g id="a_node3"><a xlink:title=" ">
<polygon fill="white" stroke="#bfbfbf" points="182.51,-0.5 182.51,-19.5 235.51,-19.5 235.51,-0.5 182.51,-0.5"/>
<text text-anchor="middle" x="209.01" y="-7.5" font-family="Helvetica,sans-Serif" font-size="10.00">cstddef</text>
</a>
</g>
</g>
<!-- Node2&#45;&gt;Node3 -->
<g id="edge2" class="edge">
<title>Node2&#45;&gt;Node3</title>
<path fill="none" stroke="midnightblue" d="M209.01,-56.08C209.01,-49.01 209.01,-38.86 209.01,-29.99"/>
<polygon fill="midnightblue" stroke="midnightblue" points="212.51,-29.75 209.01,-19.75 205.51,-29.75 212.51,-29.75"/>
</g>
<!-- Node4 -->
<g id="node4" class="node">
<title>Node4</title>
<g id="a_node4"><a xlink:title=" ">
<polygon fill="white" stroke="#bfbfbf" points="422.01,-0.5 422.01,-19.5 466.01,-19.5 466.01,-0.5 422.01,-0.5"/>
<text text-anchor="middle" x="444.01" y="-7.5" font-family="Helvetica,sans-Serif" font-size="10.00">string</text>
</a>
</g>
</g>
<!-- Node2&#45;&gt;Node4 -->
<g id="edge3" class="edge">
<title>Node2&#45;&gt;Node4</title>
<path fill="none" stroke="midnightblue" d="M251.4,-56.49C290.69,-48.42 350.98,-35.56 411.93,-20.16"/>
<polygon fill="midnightblue" stroke="midnightblue" points="412.88,-23.53 421.71,-17.66 411.16,-16.74 412.88,-23.53"/>
</g>
<!-- Node5 -->
<g id="node5" class="node">
<title>Node5</title>
<g id="a_node5"><a xlink:title=" ">
<polygon fill="white" stroke="#bfbfbf" points="330.51,-0.5 330.51,-19.5 403.51,-19.5 403.51,-0.5 330.51,-0.5"/>
<text text-anchor="middle" x="367.01" y="-7.5" font-family="Helvetica,sans-Serif" font-size="10.00">string_view</text>
</a>
</g>
</g>
<!-- Node2&#45;&gt;Node5 -->
<g id="edge4" class="edge">
<title>Node2&#45;&gt;Node5</title>
<path fill="none" stroke="midnightblue" d="M234.05,-56.44C260.63,-47.36 302.82,-32.94 332.54,-22.78"/>
<polygon fill="midnightblue" stroke="midnightblue" points="333.77,-26.06 342.1,-19.52 331.5,-19.44 333.77,-26.06"/>
</g>
<!-- Node6 -->
<g id="node6" class="node">
<title>Node6</title>
<g id="a_node6"><a xlink:title=" ">
<polygon fill="white" stroke="#bfbfbf" points="254.01,-0.5 254.01,-19.5 312.01,-19.5 312.01,-0.5 254.01,-0.5"/>
<text text-anchor="middle" x="283.01" y="-7.5" font-family="Helvetica,sans-Serif" font-size="10.00">memory</text>
</a>
</g>
</g>
<!-- Node2&#45;&gt;Node6 -->
<g id="edge5" class="edge">
<title>Node2&#45;&gt;Node6</title>
<path fill="none" stroke="midnightblue" d="M220.9,-56.32C232.16,-48.11 249.3,-35.6 262.72,-25.81"/>
<polygon fill="midnightblue" stroke="midnightblue" points="264.89,-28.56 270.91,-19.83 260.77,-22.9 264.89,-28.56"/>
</g>
<!-- Node7 -->
<g id="node7" class="node">
<title>Node7</title>
<g id="a_node7"><a xlink:title=" ">
<polygon fill="white" stroke="#bfbfbf" points="24.01,-0.5 24.01,-19.5 164.01,-19.5 164.01,-0.5 24.01,-0.5"/>
<text text-anchor="middle" x="94.01" y="-7.5" font-family="Helvetica,sans-Serif" font-size="10.00">lhashes/lhashes_Export.h</text>
</a>
</g>
</g>
<!-- Node2&#45;&gt;Node7 -->
<g id="edge6" class="edge">
<title>Node2&#45;&gt;Node7</title>
<path fill="none" stroke="midnightblue" d="M190.79,-56.44C172.12,-47.68 142.86,-33.94 121.4,-23.86"/>
<polygon fill="midnightblue" stroke="midnightblue" points="122.69,-20.6 112.15,-19.52 119.72,-26.93 122.69,-20.6"/>
</g>
<!-- Node8&#45;&gt;Node2 -->
<g id="edge12" class="edge">
<title>Node8&#45;&gt;Node2</title>
<path fill="none" stroke="midnightblue" d="M577.83,-113.28C574.85,-112.84 571.89,-112.41 569.01,-112 463.36,-97.06 339.88,-82.19 268.44,-73.83"/>
<polygon fill="midnightblue" stroke="midnightblue" points="268.62,-70.33 258.29,-72.65 267.81,-77.28 268.62,-70.33"/>
</g>
<!-- Node8&#45;&gt;Node4 -->
<g id="edge8" class="edge">
<title>Node8&#45;&gt;Node4</title>
<path fill="none" stroke="midnightblue" d="M653.82,-112.42C685.53,-101.24 730.49,-80.22 710.01,-56 680.44,-21 540.66,-13.21 476.43,-11.49"/>
<polygon fill="midnightblue" stroke="midnightblue" points="476.16,-7.98 466.08,-11.25 476,-14.98 476.16,-7.98"/>
</g>
<!-- Node8&#45;&gt;Node5 -->
<g id="edge9" class="edge">
<title>Node8&#45;&gt;Node5</title>
<path fill="none" stroke="midnightblue" d="M616.27,-112.07C600.53,-98.13 568.06,-71.2 536.01,-56 514.43,-45.76 455.51,-31.1 413.32,-21.33"/>
<polygon fill="midnightblue" stroke="midnightblue" points="414.05,-17.91 403.52,-19.08 412.48,-24.73 414.05,-17.91"/>
</g>
<!-- Node8&#45;&gt;Node7 -->
<g id="edge11" class="edge">
<title>Node8&#45;&gt;Node7</title>
<path fill="none" stroke="midnightblue" d="M614.23,-112.48C593.63,-98.09 549.25,-69.23 507.01,-56 367.6,-12.32 323.31,-35.4 174.2,-20.09"/>
<polygon fill="midnightblue" stroke="midnightblue" points="174.54,-16.6 164.22,-19.02 173.79,-23.56 174.54,-16.6"/>
</g>
<!-- Node9 -->
<g id="node9" class="node">
<title>Node9</title>
<g id="a_node9"><a xlink:title=" ">
<polygon fill="white" stroke="#bfbfbf" points="428.01,-56.5 428.01,-75.5 478.01,-75.5 478.01,-56.5 428.01,-56.5"/>
<text text-anchor="middle" x="453.01" y="-63.5" font-family="Helvetica,sans-Serif" font-size="10.00">cstdint</text>
</a>
</g>
</g>
<!-- Node8&#45;&gt;Node9 -->
<g id="edge10" class="edge">
<title>Node8&#45;&gt;Node9</title>
<path fill="none" stroke="midnightblue" d="M598.6,-112.44C568.55,-103.06 520.29,-88 487.64,-77.81"/>
<polygon fill="midnightblue" stroke="midnightblue" points="488.64,-74.45 478.05,-74.82 486.55,-81.14 488.64,-74.45"/>
</g>
<!-- Node10&#45;&gt;Node2 -->
<g id="edge18" class="edge">
<title>Node10&#45;&gt;Node2</title>
<path fill="none" stroke="midnightblue" d="M247.42,-112.08C240.79,-104.3 230.99,-92.8 222.96,-83.37"/>
<polygon fill="midnightblue" stroke="midnightblue" points="225.62,-81.09 216.47,-75.75 220.29,-85.63 225.62,-81.09"/>
</g>
<!-- Node10&#45;&gt;Node4 -->
<g id="edge15" class="edge">
<title>Node10&#45;&gt;Node4</title>
<path fill="none" stroke="midnightblue" d="M269.84,-112.37C302.55,-93.33 381.1,-47.62 420.56,-24.65"/>
<polygon fill="midnightblue" stroke="midnightblue" points="422.37,-27.65 429.25,-19.59 418.85,-21.6 422.37,-27.65"/>
</g>
<!-- Node10&#45;&gt;Node5 -->
<g id="edge16" class="edge">
<title>Node10&#45;&gt;Node5</title>
<path fill="none" stroke="midnightblue" d="M261.62,-112.1C271.46,-99.12 290.88,-74.49 310.01,-56 321.32,-45.08 335.13,-34.12 346.33,-25.75"/>
<polygon fill="midnightblue" stroke="midnightblue" points="348.65,-28.39 354.65,-19.65 344.51,-22.74 348.65,-28.39"/>
</g>
<!-- Node10&#45;&gt;Node7 -->
<g id="edge17" class="edge">
<title>Node10&#45;&gt;Node7</title>
<path fill="none" stroke="midnightblue" d="M205.81,-115.57C176.94,-110.01 141.62,-98.76 118.01,-76 105.44,-63.88 99.41,-44.6 96.55,-30.18"/>
<polygon fill="midnightblue" stroke="midnightblue" points="99.93,-29.19 94.86,-19.89 93.02,-30.32 99.93,-29.19"/>
</g>
<!-- Node10&#45;&gt;Node9 -->
<g id="edge14" class="edge">
<title>Node10&#45;&gt;Node9</title>
<path fill="none" stroke="midnightblue" d="M286.39,-112.44C322.17,-102.68 380.53,-86.77 417.83,-76.6"/>
<polygon fill="midnightblue" stroke="midnightblue" points="419.03,-79.9 427.76,-73.89 417.19,-73.14 419.03,-79.9"/>
</g>
<!-- Node11&#45;&gt;Node2 -->
<g id="edge25" class="edge">
<title>Node11&#45;&gt;Node2</title>
<path fill="none" stroke="midnightblue" d="M691.88,-113.09C688.88,-112.71 685.91,-112.34 683.01,-112 534.01,-94.46 358.02,-79.17 268.21,-71.76"/>
<polygon fill="midnightblue" stroke="midnightblue" points="268.48,-68.27 258.22,-70.94 267.9,-75.24 268.48,-68.27"/>
</g>
<!-- Node11&#45;&gt;Node4 -->
<g id="edge20" class="edge">
<title>Node11&#45;&gt;Node4</title>
<path fill="none" stroke="midnightblue" d="M784.59,-112.5C823.25,-102.08 874.74,-82.49 851.01,-56 826.12,-28.2 568.34,-15.73 476.38,-12.15"/>
<polygon fill="midnightblue" stroke="midnightblue" points="476.39,-8.64 466.27,-11.76 476.13,-15.64 476.39,-8.64"/>
</g>
<!-- Node11&#45;&gt;Node5 -->
<g id="edge21" class="edge">
<title>Node11&#45;&gt;Node5</title>
<path fill="none" stroke="midnightblue" d="M725.96,-112.42C692.65,-99.07 625.54,-73.08 567.01,-56 538.73,-47.75 463.35,-31.34 413.64,-20.78"/>
<polygon fill="midnightblue" stroke="midnightblue" points="414.27,-17.34 403.76,-18.69 412.82,-24.19 414.27,-17.34"/>
</g>
<!-- Node11&#45;&gt;Node7 -->
<g id="edge24" class="edge">
<title>Node11&#45;&gt;Node7</title>
<path fill="none" stroke="midnightblue" d="M725.38,-112.43C688.57,-98.23 611.1,-70 543.01,-56 384.34,-23.38 339.08,-36.8 174.22,-20.09"/>
<polygon fill="midnightblue" stroke="midnightblue" points="174.53,-16.61 164.22,-19.06 173.81,-23.57 174.53,-16.61"/>
</g>
<!-- Node11&#45;&gt;Node9 -->
<g id="edge22" class="edge">
<title>Node11&#45;&gt;Node9</title>
<path fill="none" stroke="midnightblue" d="M700.43,-112.44C641.38,-101.6 540.93,-83.15 488.01,-73.43"/>
<polygon fill="midnightblue" stroke="midnightblue" points="488.55,-69.97 478.09,-71.6 487.29,-76.85 488.55,-69.97"/>
</g>
<!-- Node12 -->
<g id="node12" class="node">
<title>Node12</title>
<g id="a_node12"><a xlink:title=" ">
<polygon fill="white" stroke="#bfbfbf" points="800.01,-56.5 800.01,-75.5 842.01,-75.5 842.01,-56.5 800.01,-56.5"/>
<text text-anchor="middle" x="821.01" y="-63.5" font-family="Helvetica,sans-Serif" font-size="10.00">array</text>
</a>
</g>
</g>
<!-- Node11&#45;&gt;Node12 -->
<g id="edge23" class="edge">
<title>Node11&#45;&gt;Node12</title>
<path fill="none" stroke="midnightblue" d="M758.9,-112.32C770.16,-104.11 787.3,-91.6 800.72,-81.81"/>
<polygon fill="midnightblue" stroke="midnightblue" points="802.89,-84.56 808.91,-75.83 798.77,-78.9 802.89,-84.56"/>
</g>
<!-- Node13&#45;&gt;Node2 -->
<g id="edge31" class="edge">
<title>Node13&#45;&gt;Node2</title>
<path fill="none" stroke="midnightblue" d="M113.08,-112.44C131.59,-103.68 160.6,-89.94 181.87,-79.86"/>
<polygon fill="midnightblue" stroke="midnightblue" points="183.5,-82.96 191.04,-75.52 180.5,-76.63 183.5,-82.96"/>
</g>
<!-- Node13&#45;&gt;Node4 -->
<g id="edge27" class="edge">
<title>Node13&#45;&gt;Node4</title>
<path fill="none" stroke="midnightblue" d="M99.83,-112.05C108.14,-97.55 126.68,-69.24 151.01,-56 251.45,-1.38 295.61,-42.09 411.79,-19.91"/>
<polygon fill="midnightblue" stroke="midnightblue" points="412.66,-23.3 421.76,-17.88 411.27,-16.44 412.66,-23.3"/>
</g>
<!-- Node13&#45;&gt;Node5 -->
<g id="edge28" class="edge">
<title>Node13&#45;&gt;Node5</title>
<path fill="none" stroke="midnightblue" d="M88.82,-112.3C79.94,-98.66 66.1,-72.14 80.01,-56 113.57,-17.06 252.49,-27.9 320.16,-19.79"/>
<polygon fill="midnightblue" stroke="midnightblue" points="320.99,-23.21 330.38,-18.32 319.99,-16.28 320.99,-23.21"/>
</g>
<!-- Node13&#45;&gt;Node7 -->
<g id="edge30" class="edge">
<title>Node13&#45;&gt;Node7</title>
<path fill="none" stroke="midnightblue" d="M57.05,-112.41C37.61,-105.88 15.64,-94.72 4.01,-76 -11.13,-51.62 21.79,-33.61 51.98,-22.81"/>
<polygon fill="midnightblue" stroke="midnightblue" points="53.27,-26.07 61.62,-19.56 51.03,-19.44 53.27,-26.07"/>
</g>
<!-- Node13&#45;&gt;Node9 -->
<g id="edge29" class="edge">
<title>Node13&#45;&gt;Node9</title>
<path fill="none" stroke="midnightblue" d="M150.17,-112.68C224.7,-101.44 355.43,-81.72 417.87,-72.3"/>
<polygon fill="midnightblue" stroke="midnightblue" points="418.64,-75.73 428,-70.77 417.59,-68.8 418.64,-75.73"/>
</g>
<!-- Node14&#45;&gt;Node2 -->
<g id="edge37" class="edge">
<title>Node14&#45;&gt;Node2</title>
<path fill="none" stroke="midnightblue" d="M458.11,-112.44C405.93,-102.92 321.64,-87.55 265.78,-77.36"/>
<polygon fill="midnightblue" stroke="midnightblue" points="266.16,-73.87 255.7,-75.52 264.91,-80.75 266.16,-73.87"/>
</g>
<!-- Node14&#45;&gt;Node4 -->
<g id="edge33" class="edge">
<title>Node14&#45;&gt;Node4</title>
<path fill="none" stroke="midnightblue" d="M537.1,-112.41C570.51,-101.84 615.47,-82.06 596.01,-56 568.55,-19.23 512.38,-11.27 476.54,-10.19"/>
<polygon fill="midnightblue" stroke="midnightblue" points="476.18,-6.68 466.13,-10.05 476.08,-13.68 476.18,-6.68"/>
</g>
<!-- Node14&#45;&gt;Node5 -->
<g id="edge34" class="edge">
<title>Node14&#45;&gt;Node5</title>
<path fill="none" stroke="midnightblue" d="M511.22,-112.08C519.73,-98.61 532.64,-72.88 520.01,-56 513.43,-47.2 456.16,-32.01 413.61,-21.73"/>
<polygon fill="midnightblue" stroke="midnightblue" points="414.23,-18.29 403.69,-19.37 412.61,-25.09 414.23,-18.29"/>
</g>
<!-- Node14&#45;&gt;Node7 -->
<g id="edge36" class="edge">
<title>Node14&#45;&gt;Node7</title>
<path fill="none" stroke="midnightblue" d="M505.43,-112.25C505.57,-98.05 503.57,-70.15 487.01,-56 486.83,-55.84 289.31,-33.28 174.4,-20.17"/>
<polygon fill="midnightblue" stroke="midnightblue" points="174.57,-16.67 164.23,-19.01 173.77,-23.62 174.57,-16.67"/>
</g>
<!-- Node14&#45;&gt;Node9 -->
<g id="edge35" class="edge">
<title>Node14&#45;&gt;Node9</title>
<path fill="none" stroke="midnightblue" d="M496.43,-112.08C488.86,-104.22 477.64,-92.57 468.5,-83.08"/>
<polygon fill="midnightblue" stroke="midnightblue" points="470.9,-80.53 461.44,-75.75 465.86,-85.38 470.9,-80.53"/>
</g>
<!-- Node15&#45;&gt;Node2 -->
<g id="edge43" class="edge">
<title>Node15&#45;&gt;Node2</title>
<path fill="none" stroke="midnightblue" d="M350.39,-112.44C322.01,-103.32 276.88,-88.81 245.26,-78.65"/>
<polygon fill="midnightblue" stroke="midnightblue" points="246.1,-75.24 235.51,-75.52 243.96,-81.91 246.1,-75.24"/>
</g>
<!-- Node15&#45;&gt;Node4 -->
<g id="edge40" class="edge">
<title>Node15&#45;&gt;Node4</title>
<path fill="none" stroke="midnightblue" d="M382.27,-112.37C393.28,-94.3 418.93,-52.18 433.47,-28.31"/>
<polygon fill="midnightblue" stroke="midnightblue" points="436.57,-29.95 438.78,-19.59 430.59,-26.31 436.57,-29.95"/>
</g>
<!-- Node15&#45;&gt;Node5 -->
<g id="edge41" class="edge">
<title>Node15&#45;&gt;Node5</title>
<path fill="none" stroke="midnightblue" d="M376.23,-112.37C374.62,-94.62 370.89,-53.67 368.71,-29.6"/>
<polygon fill="midnightblue" stroke="midnightblue" points="372.19,-29.23 367.8,-19.59 365.22,-29.87 372.19,-29.23"/>
</g>
<!-- Node15&#45;&gt;Node7 -->
<g id="edge42" class="edge">
<title>Node15&#45;&gt;Node7</title>
<path fill="none" stroke="midnightblue" d="M325.07,-112.47C263.09,-102.01 165.93,-84.62 151.01,-76 131.18,-64.55 114.74,-43.66 104.7,-28.65"/>
<polygon fill="midnightblue" stroke="midnightblue" points="107.38,-26.34 99.05,-19.79 101.47,-30.1 107.38,-26.34"/>
</g>
<!-- Node15&#45;&gt;Node9 -->
<g id="edge39" class="edge">
<title>Node15&#45;&gt;Node9</title>
<path fill="none" stroke="midnightblue" d="M389.23,-112.32C400.79,-104.11 418.39,-91.6 432.18,-81.81"/>
<polygon fill="midnightblue" stroke="midnightblue" points="434.46,-84.48 440.58,-75.83 430.4,-78.77 434.46,-84.48"/>
</g>
</g>
</svg>
        <g id="navigator" transform="translate(0 0)" fill="#404254">
                <rect fill="#f2f5e9" fill-opacity="0.5" stroke="#606060" stroke-width=".5" x="0" y="0" width="60" height="60"/>
                <use id="zoomplus" xlink:href="#zoomPlus" x="17" y="9" onmousedown="handleZoom(evt,'in')"/>
                <use id="zoomminus" xlink:href="#zoomMin" x="42" y="9" onmousedown="handleZoom(evt,'out')"/>
                <use id="reset" xlink:href="#resetDef" x="30" y="36" onmousedown="handleReset()"/>
                <g id="arrowUp" xlink:href="#dirArrow" transform="translate(30 24)" onmousedown="handlePan(0,-1)">
                  <use xlink:href="#rim" fill="#404040">
                        <set attributeName="fill" to="#808080" begin="arrowUp.mouseover" end="arrowUp.mouseout"/>
                  </use>
                  <path fill="none" stroke="white" stroke-width="1.5" d="M0,-3.0v7 M-2.5,-0.5L0,-3.0L2.5,-0.5"/>
                </g>
                <g id="arrowRight" xlink:href="#dirArrow" transform="rotate(90) translate(36 -43)" onmousedown="handlePan(1,0)">
                  <use xlink:href="#rim" fill="#404040">
                        <set attributeName="fill" to="#808080" begin="arrowRight.mouseover" end="arrowRight.mouseout"/>
                  </use>
                  <path fill="none" stroke="white" stroke-width="1.5" d="M0,-3.0v7 M-2.5,-0.5L0,-3.0L2.5,-0.5"/>
                </g>
                <g id="arrowDown" xlink:href="#dirArrow" transform="rotate(180) translate(-30 -48)" onmousedown="handlePan(0,1)">
                  <use xlink:href="#rim" fill="#404040">
                        <set attributeName="fill" to="#808080" begin="arrowDown.mouseover" end="arrowDown.mouseout"/>
                  </use>
                  <path fill="none" stroke="white" stroke-width="1.5" d="M0,-3.0v7 M-2.5,-0.5L0,-3.0L2.5,-0.5"/>
                </g>
                <g id="arrowLeft" xlink:href="#dirArrow" transform="rotate(270) translate(-36 17)" onmousedown="handlePan(-1,0)">
                  <use xlink:href="#rim" fill="#404040">
                        <set attributeName="fill" to="#808080" begin="arrowLeft.mouseover" end="arrowLeft.mouseout"/>
                  </use>
                  <path fill="none" stroke="white" stroke-width="1.5" d="M0,-3.0v7 M-2.5,-0.5L0,-3.0L2.5,-0.5"/>
                </g>
        </g>
        <svg viewBox="0 0 15 15" width="100%" height="30px" preserveAspectRatio="xMaxYMin meet">
         <g id="arrow_out" transform="scale(0.3 0.3)">
          <a xlink:href="lhashes_8h__incl_org.svg" target="_base">
           <rect id="button" ry="5" rx="5" y="6" x="6" height="38" width="38"
                fill="#f2f5e9" fill-opacity="0.5" stroke="#606060" stroke-width="1.0"/>
           <path id="arrow"
             d="M 11.500037,31.436501 C 11.940474,20.09759 22.043105,11.32322 32.158766,21.979434 L 37.068811,17.246167 C 37.068811,17.246167 37.088388,32 37.088388,32 L 22.160133,31.978069 C 22.160133,31.978069 26.997745,27.140456 26.997745,27.140456 C 18.528582,18.264221 13.291696,25.230495 11.500037,31.436501 z"
             style="fill:#404040;"/>
          </a>
         </g>
        </svg>
</svg>
