<?xml version="1.0" encoding="UTF-8" standalone="no"?>
<!DOCTYPE svg PUBLIC "-//W3C//DTD SVG 1.1//EN"
 "http://www.w3.org/Graphics/SVG/1.1/DTD/svg11.dtd">
<!-- Generated by graphviz version 2.43.0 (0)
 -->
<!-- Title: lhashes.h Pages: 1 -->
<svg width="1140pt" height="196pt"
 viewBox="0.00 0.00 1139.50 196.00" xmlns="http://www.w3.org/2000/svg" xmlns:xlink="http://www.w3.org/1999/xlink">
<g id="graph0" class="graph" transform="scale(1 1) rotate(0) translate(4 192)">
<title>lhashes.h</title>
<polygon fill="white" stroke="transparent" points="-4,4 -4,-192 1135.5,-192 1135.5,4 -4,4"/>
<!-- Node1 -->
<g id="node1" class="node">
<title>Node1</title>
<g id="a_node1"><a xlink:title="The main header for the limes_hashes library.">
<polygon fill="#bfbfbf" stroke="black" points="482,-168.5 482,-187.5 545,-187.5 545,-168.5 482,-168.5"/>
<text text-anchor="middle" x="513.5" y="-175.5" font-family="Helvetica,sans-Serif" font-size="10.00">lhashes.h</text>
</a>
</g>
</g>
<!-- Node2 -->
<g id="node2" class="node">
<title>Node2</title>
<g id="a_node2"><a xlink:title=" ">
<polygon fill="white" stroke="#bfbfbf" points="0,-112.5 0,-131.5 145,-131.5 145,-112.5 0,-112.5"/>
<text text-anchor="middle" x="72.5" y="-119.5" font-family="Helvetica,sans-Serif" font-size="10.00">lhashes/lhashes_Version.h</text>
</a>
</g>
</g>
<!-- Node1&#45;&gt;Node2 -->
<g id="edge1" class="edge">
<title>Node1&#45;&gt;Node2</title>
<path fill="none" stroke="midnightblue" d="M481.78,-173.12C413.5,-164.75 250.78,-144.83 152.32,-132.77"/>
<polygon fill="midnightblue" stroke="midnightblue" points="152.47,-129.27 142.12,-131.52 151.62,-136.21 152.47,-129.27"/>
</g>
<!-- Node3 -->
<g id="node3" class="node">
<title>Node3</title>
<g id="a_node3"><a xlink:href="lhashes__hash_8h.html" target="_top" xlink:title="This file defines the hash::Hasher class and the hash::hash() free functions.">
<polygon fill="white" stroke="black" points="360.5,-56.5 360.5,-75.5 492.5,-75.5 492.5,-56.5 360.5,-56.5"/>
<text text-anchor="middle" x="426.5" y="-63.5" font-family="Helvetica,sans-Serif" font-size="10.00">lhashes/lhashes_hash.h</text>
</a>
</g>
</g>
<!-- Node1&#45;&gt;Node3 -->
<g id="edge2" class="edge">
<title>Node1&#45;&gt;Node3</title>
<path fill="none" stroke="midnightblue" d="M481.8,-172.57C439.96,-166.01 369.81,-152.25 354.5,-132 338.76,-111.18 368.46,-91.75 394.35,-79.65"/>
<polygon fill="midnightblue" stroke="midnightblue" points="395.91,-82.79 403.63,-75.54 393.07,-76.4 395.91,-82.79"/>
</g>
<!-- Node9 -->
<g id="node9" class="node">
<title>Node9</title>
<g id="a_node9"><a xlink:href="lhashes__md5_8h.html" target="_top" xlink:title="This file defines the hash::MD5 class.">
<polygon fill="white" stroke="black" points="526,-112.5 526,-131.5 657,-131.5 657,-112.5 526,-112.5"/>
<text text-anchor="middle" x="591.5" y="-119.5" font-family="Helvetica,sans-Serif" font-size="10.00">lhashes/lhashes_md5.h</text>
</a>
</g>
</g>
<!-- Node1&#45;&gt;Node9 -->
<g id="edge8" class="edge">
<title>Node1&#45;&gt;Node9</title>
<path fill="none" stroke="midnightblue" d="M526.03,-168.32C538.09,-159.98 556.53,-147.21 570.77,-137.35"/>
<polygon fill="midnightblue" stroke="midnightblue" points="572.77,-140.22 579,-131.65 568.78,-134.47 572.77,-140.22"/>
</g>
<!-- Node11 -->
<g id="node11" class="node">
<title>Node11</title>
<g id="a_node11"><a xlink:href="lhashes__sha1_8h.html" target="_top" xlink:title="This file defines the hash::SHA1 class.">
<polygon fill="white" stroke="black" points="837.5,-112.5 837.5,-131.5 969.5,-131.5 969.5,-112.5 837.5,-112.5"/>
<text text-anchor="middle" x="903.5" y="-119.5" font-family="Helvetica,sans-Serif" font-size="10.00">lhashes/lhashes_sha1.h</text>
</a>
</g>
</g>
<!-- Node1&#45;&gt;Node11 -->
<g id="edge14" class="edge">
<title>Node1&#45;&gt;Node11</title>
<path fill="none" stroke="midnightblue" d="M545.08,-172.63C607.12,-164.04 746.26,-144.77 831.78,-132.93"/>
<polygon fill="midnightblue" stroke="midnightblue" points="832.51,-136.36 841.94,-131.52 831.55,-129.43 832.51,-136.36"/>
</g>
<!-- Node12 -->
<g id="node12" class="node">
<title>Node12</title>
<g id="a_node12"><a xlink:href="lhashes__sha224_8h.html" target="_top" xlink:title="This file defines the hash::SHA224 class.">
<polygon fill="white" stroke="black" points="987.5,-112.5 987.5,-131.5 1131.5,-131.5 1131.5,-112.5 987.5,-112.5"/>
<text text-anchor="middle" x="1059.5" y="-119.5" font-family="Helvetica,sans-Serif" font-size="10.00">lhashes/lhashes_sha224.h</text>
</a>
</g>
</g>
<!-- Node1&#45;&gt;Node12 -->
<g id="edge20" class="edge">
<title>Node1&#45;&gt;Node12</title>
<path fill="none" stroke="midnightblue" d="M545.09,-174.1C618.77,-167.3 807.96,-149.64 977,-132.14"/>
<polygon fill="midnightblue" stroke="midnightblue" points="977.5,-135.61 987.08,-131.1 976.77,-128.65 977.5,-135.61"/>
</g>
<!-- Node14 -->
<g id="node14" class="node">
<title>Node14</title>
<g id="a_node14"><a xlink:href="lhashes__sha256_8h.html" target="_top" xlink:title="This file defines the hash::SHA256 class.">
<polygon fill="white" stroke="black" points="163.5,-112.5 163.5,-131.5 307.5,-131.5 307.5,-112.5 163.5,-112.5"/>
<text text-anchor="middle" x="235.5" y="-119.5" font-family="Helvetica,sans-Serif" font-size="10.00">lhashes/lhashes_sha256.h</text>
</a>
</g>
</g>
<!-- Node1&#45;&gt;Node14 -->
<g id="edge27" class="edge">
<title>Node1&#45;&gt;Node14</title>
<path fill="none" stroke="midnightblue" d="M481.88,-170.86C435.03,-161.76 346.55,-144.57 289.36,-133.46"/>
<polygon fill="midnightblue" stroke="midnightblue" points="289.9,-130 279.41,-131.53 288.56,-136.87 289.9,-130"/>
</g>
<!-- Node15 -->
<g id="node15" class="node">
<title>Node15</title>
<g id="a_node15"><a xlink:href="lhashes__sha384_8h.html" target="_top" xlink:title="This file defines the hash::SHA384 class.">
<polygon fill="white" stroke="black" points="675.5,-112.5 675.5,-131.5 819.5,-131.5 819.5,-112.5 675.5,-112.5"/>
<text text-anchor="middle" x="747.5" y="-119.5" font-family="Helvetica,sans-Serif" font-size="10.00">lhashes/lhashes_sha384.h</text>
</a>
</g>
</g>
<!-- Node1&#45;&gt;Node15 -->
<g id="edge33" class="edge">
<title>Node1&#45;&gt;Node15</title>
<path fill="none" stroke="midnightblue" d="M545.06,-169.72C585.04,-160.49 654.29,-144.51 700.5,-133.85"/>
<polygon fill="midnightblue" stroke="midnightblue" points="701.32,-137.25 710.28,-131.59 699.75,-130.43 701.32,-137.25"/>
</g>
<!-- Node16 -->
<g id="node16" class="node">
<title>Node16</title>
<g id="a_node16"><a xlink:href="lhashes__sha512_8h.html" target="_top" xlink:title="This file defines the hash::SHA512 class.">
<polygon fill="white" stroke="black" points="363.5,-112.5 363.5,-131.5 507.5,-131.5 507.5,-112.5 363.5,-112.5"/>
<text text-anchor="middle" x="435.5" y="-119.5" font-family="Helvetica,sans-Serif" font-size="10.00">lhashes/lhashes_sha512.h</text>
</a>
</g>
</g>
<!-- Node1&#45;&gt;Node16 -->
<g id="edge39" class="edge">
<title>Node1&#45;&gt;Node16</title>
<path fill="none" stroke="midnightblue" d="M500.97,-168.32C488.91,-159.98 470.47,-147.21 456.23,-137.35"/>
<polygon fill="midnightblue" stroke="midnightblue" points="458.22,-134.47 448,-131.65 454.23,-140.22 458.22,-134.47"/>
</g>
<!-- Node4 -->
<g id="node4" class="node">
<title>Node4</title>
<g id="a_node4"><a xlink:title=" ">
<polygon fill="white" stroke="#bfbfbf" points="412,-0.5 412,-19.5 465,-19.5 465,-0.5 412,-0.5"/>
<text text-anchor="middle" x="438.5" y="-7.5" font-family="Helvetica,sans-Serif" font-size="10.00">cstddef</text>
</a>
</g>
</g>
<!-- Node3&#45;&gt;Node4 -->
<g id="edge3" class="edge">
<title>Node3&#45;&gt;Node4</title>
<path fill="none" stroke="midnightblue" d="M428.48,-56.08C430.07,-48.93 432.36,-38.64 434.35,-29.69"/>
<polygon fill="midnightblue" stroke="midnightblue" points="437.8,-30.27 436.56,-19.75 430.97,-28.75 437.8,-30.27"/>
</g>
<!-- Node5 -->
<g id="node5" class="node">
<title>Node5</title>
<g id="a_node5"><a xlink:title=" ">
<polygon fill="white" stroke="#bfbfbf" points="651.5,-0.5 651.5,-19.5 695.5,-19.5 695.5,-0.5 651.5,-0.5"/>
<text text-anchor="middle" x="673.5" y="-7.5" font-family="Helvetica,sans-Serif" font-size="10.00">string</text>
</a>
</g>
</g>
<!-- Node3&#45;&gt;Node5 -->
<g id="edge4" class="edge">
<title>Node3&#45;&gt;Node5</title>
<path fill="none" stroke="midnightblue" d="M472.66,-56.45C514.41,-48.48 577.77,-35.8 641.4,-20.13"/>
<polygon fill="midnightblue" stroke="midnightblue" points="642.34,-23.5 651.2,-17.7 640.66,-16.71 642.34,-23.5"/>
</g>
<!-- Node6 -->
<g id="node6" class="node">
<title>Node6</title>
<g id="a_node6"><a xlink:title=" ">
<polygon fill="white" stroke="#bfbfbf" points="560,-0.5 560,-19.5 633,-19.5 633,-0.5 560,-0.5"/>
<text text-anchor="middle" x="596.5" y="-7.5" font-family="Helvetica,sans-Serif" font-size="10.00">string_view</text>
</a>
</g>
</g>
<!-- Node3&#45;&gt;Node6 -->
<g id="edge5" class="edge">
<title>Node3&#45;&gt;Node6</title>
<path fill="none" stroke="midnightblue" d="M453.44,-56.44C482.16,-47.32 527.83,-32.81 559.82,-22.65"/>
<polygon fill="midnightblue" stroke="midnightblue" points="561.22,-25.88 569.69,-19.52 559.1,-19.21 561.22,-25.88"/>
</g>
<!-- Node7 -->
<g id="node7" class="node">
<title>Node7</title>
<g id="a_node7"><a xlink:title=" ">
<polygon fill="white" stroke="#bfbfbf" points="483.5,-0.5 483.5,-19.5 541.5,-19.5 541.5,-0.5 483.5,-0.5"/>
<text text-anchor="middle" x="512.5" y="-7.5" font-family="Helvetica,sans-Serif" font-size="10.00">memory</text>
</a>
</g>
</g>
<!-- Node3&#45;&gt;Node7 -->
<g id="edge6" class="edge">
<title>Node3&#45;&gt;Node7</title>
<path fill="none" stroke="midnightblue" d="M440.32,-56.32C453.73,-47.9 474.32,-34.97 490.09,-25.07"/>
<polygon fill="midnightblue" stroke="midnightblue" points="492.11,-27.94 498.72,-19.65 488.39,-22.01 492.11,-27.94"/>
</g>
<!-- Node8 -->
<g id="node8" class="node">
<title>Node8</title>
<g id="a_node8"><a xlink:title=" ">
<polygon fill="white" stroke="#bfbfbf" points="253.5,-0.5 253.5,-19.5 393.5,-19.5 393.5,-0.5 253.5,-0.5"/>
<text text-anchor="middle" x="323.5" y="-7.5" font-family="Helvetica,sans-Serif" font-size="10.00">lhashes/lhashes_Export.h</text>
</a>
</g>
</g>
<!-- Node3&#45;&gt;Node8 -->
<g id="edge7" class="edge">
<title>Node3&#45;&gt;Node8</title>
<path fill="none" stroke="midnightblue" d="M409.95,-56.32C393.51,-47.7 368.07,-34.36 349.03,-24.39"/>
<polygon fill="midnightblue" stroke="midnightblue" points="350.49,-21.2 340.01,-19.65 347.24,-27.4 350.49,-21.2"/>
</g>
<!-- Node9&#45;&gt;Node3 -->
<g id="edge13" class="edge">
<title>Node9&#45;&gt;Node3</title>
<path fill="none" stroke="midnightblue" d="M565.36,-112.44C537.48,-103.32 493.15,-88.81 462.1,-78.65"/>
<polygon fill="midnightblue" stroke="midnightblue" points="463.12,-75.3 452.52,-75.52 460.94,-81.95 463.12,-75.3"/>
</g>
<!-- Node9&#45;&gt;Node5 -->
<g id="edge9" class="edge">
<title>Node9&#45;&gt;Node5</title>
<path fill="none" stroke="midnightblue" d="M597.93,-112.37C611.53,-94.14 643.36,-51.43 661.07,-27.68"/>
<polygon fill="midnightblue" stroke="midnightblue" points="663.92,-29.7 667.1,-19.59 658.31,-25.52 663.92,-29.7"/>
</g>
<!-- Node9&#45;&gt;Node6 -->
<g id="edge10" class="edge">
<title>Node9&#45;&gt;Node6</title>
<path fill="none" stroke="midnightblue" d="M591.89,-112.37C592.7,-94.62 594.56,-53.67 595.65,-29.6"/>
<polygon fill="midnightblue" stroke="midnightblue" points="599.15,-29.74 596.11,-19.59 592.16,-29.42 599.15,-29.74"/>
</g>
<!-- Node9&#45;&gt;Node8 -->
<g id="edge12" class="edge">
<title>Node9&#45;&gt;Node8</title>
<path fill="none" stroke="midnightblue" d="M529.66,-112.47C463.24,-102.84 365.32,-87.06 351.5,-76 337.28,-64.62 330.14,-44.63 326.65,-29.81"/>
<polygon fill="midnightblue" stroke="midnightblue" points="330.02,-28.84 324.63,-19.72 323.16,-30.21 330.02,-28.84"/>
</g>
<!-- Node10 -->
<g id="node10" class="node">
<title>Node10</title>
<g id="a_node10"><a xlink:title=" ">
<polygon fill="white" stroke="#bfbfbf" points="662.5,-56.5 662.5,-75.5 712.5,-75.5 712.5,-56.5 662.5,-56.5"/>
<text text-anchor="middle" x="687.5" y="-63.5" font-family="Helvetica,sans-Serif" font-size="10.00">cstdint</text>
</a>
</g>
</g>
<!-- Node9&#45;&gt;Node10 -->
<g id="edge11" class="edge">
<title>Node9&#45;&gt;Node10</title>
<path fill="none" stroke="midnightblue" d="M606.92,-112.32C622.04,-103.82 645.32,-90.73 662.97,-80.8"/>
<polygon fill="midnightblue" stroke="midnightblue" points="665.11,-83.61 672.11,-75.65 661.68,-77.51 665.11,-83.61"/>
</g>
<!-- Node11&#45;&gt;Node3 -->
<g id="edge19" class="edge">
<title>Node11&#45;&gt;Node3</title>
<path fill="none" stroke="midnightblue" d="M837.25,-113.02C834.29,-112.67 831.37,-112.33 828.5,-112 715.11,-98.85 583.64,-84.26 502.77,-75.35"/>
<polygon fill="midnightblue" stroke="midnightblue" points="503,-71.86 492.67,-74.24 502.23,-78.82 503,-71.86"/>
</g>
<!-- Node11&#45;&gt;Node5 -->
<g id="edge16" class="edge">
<title>Node11&#45;&gt;Node5</title>
<path fill="none" stroke="midnightblue" d="M915.73,-112.49C932.85,-99.56 960.2,-74.52 944.5,-56 914.19,-20.24 770.66,-12.87 705.65,-11.37"/>
<polygon fill="midnightblue" stroke="midnightblue" points="705.62,-7.87 695.55,-11.17 705.48,-14.87 705.62,-7.87"/>
</g>
<!-- Node11&#45;&gt;Node6 -->
<g id="edge17" class="edge">
<title>Node11&#45;&gt;Node6</title>
<path fill="none" stroke="midnightblue" d="M888.51,-112.34C864.48,-98.76 815.58,-72.32 771.5,-56 729.06,-40.29 678.88,-27.99 643.16,-20.25"/>
<polygon fill="midnightblue" stroke="midnightblue" points="643.54,-16.76 633.03,-18.1 642.08,-23.6 643.54,-16.76"/>
</g>
<!-- Node11&#45;&gt;Node8 -->
<g id="edge18" class="edge">
<title>Node11&#45;&gt;Node8</title>
<path fill="none" stroke="midnightblue" d="M886.64,-112.35C857.89,-98.04 797.19,-69.65 742.5,-56 598.23,-19.99 555.38,-35.88 403.85,-20.11"/>
<polygon fill="midnightblue" stroke="midnightblue" points="404.02,-16.61 393.71,-19.03 403.28,-23.57 404.02,-16.61"/>
</g>
<!-- Node11&#45;&gt;Node10 -->
<g id="edge15" class="edge">
<title>Node11&#45;&gt;Node10</title>
<path fill="none" stroke="midnightblue" d="M869.27,-112.44C829.14,-102.41 762.96,-85.87 722.49,-75.75"/>
<polygon fill="midnightblue" stroke="midnightblue" points="723.34,-72.35 712.79,-73.32 721.64,-79.14 723.34,-72.35"/>
</g>
<!-- Node12&#45;&gt;Node3 -->
<g id="edge26" class="edge">
<title>Node12&#45;&gt;Node3</title>
<path fill="none" stroke="midnightblue" d="M987.09,-112.85C984.19,-112.56 981.32,-112.27 978.5,-112 808.83,-95.66 609.43,-80.37 502.85,-72.51"/>
<polygon fill="midnightblue" stroke="midnightblue" points="503.06,-69.02 492.83,-71.78 502.55,-76 503.06,-69.02"/>
</g>
<!-- Node12&#45;&gt;Node5 -->
<g id="edge21" class="edge">
<title>Node12&#45;&gt;Node5</title>
<path fill="none" stroke="midnightblue" d="M1068.06,-112.42C1080.47,-98.94 1100.43,-72.65 1085.5,-56 1060.26,-27.85 798.75,-15.59 705.95,-12.1"/>
<polygon fill="midnightblue" stroke="midnightblue" points="705.86,-8.6 695.74,-11.73 705.61,-15.59 705.86,-8.6"/>
</g>
<!-- Node12&#45;&gt;Node6 -->
<g id="edge22" class="edge">
<title>Node12&#45;&gt;Node6</title>
<path fill="none" stroke="midnightblue" d="M1028.18,-112.47C980.63,-99.61 887.32,-74.8 807.5,-56 751.13,-42.73 685.89,-29.07 643.05,-20.34"/>
<polygon fill="midnightblue" stroke="midnightblue" points="643.7,-16.9 633.2,-18.34 642.3,-23.76 643.7,-16.9"/>
</g>
<!-- Node12&#45;&gt;Node8 -->
<g id="edge25" class="edge">
<title>Node12&#45;&gt;Node8</title>
<path fill="none" stroke="midnightblue" d="M1029.37,-112.39C979.21,-98.4 875.22,-70.79 785.5,-56 620.02,-28.73 574.29,-37.33 403.78,-20.1"/>
<polygon fill="midnightblue" stroke="midnightblue" points="404.01,-16.61 393.7,-19.07 403.29,-23.57 404.01,-16.61"/>
</g>
<!-- Node12&#45;&gt;Node10 -->
<g id="edge23" class="edge">
<title>Node12&#45;&gt;Node10</title>
<path fill="none" stroke="midnightblue" d="M1000.56,-112.44C922.35,-101.09 786.73,-81.4 722.79,-72.12"/>
<polygon fill="midnightblue" stroke="midnightblue" points="723.2,-68.65 712.8,-70.67 722.19,-75.57 723.2,-68.65"/>
</g>
<!-- Node13 -->
<g id="node13" class="node">
<title>Node13</title>
<g id="a_node13"><a xlink:title=" ">
<polygon fill="white" stroke="#bfbfbf" points="1034.5,-56.5 1034.5,-75.5 1076.5,-75.5 1076.5,-56.5 1034.5,-56.5"/>
<text text-anchor="middle" x="1055.5" y="-63.5" font-family="Helvetica,sans-Serif" font-size="10.00">array</text>
</a>
</g>
</g>
<!-- Node12&#45;&gt;Node13 -->
<g id="edge24" class="edge">
<title>Node12&#45;&gt;Node13</title>
<path fill="none" stroke="midnightblue" d="M1058.84,-112.08C1058.32,-105.01 1057.56,-94.86 1056.91,-85.99"/>
<polygon fill="midnightblue" stroke="midnightblue" points="1060.38,-85.47 1056.15,-75.75 1053.4,-85.98 1060.38,-85.47"/>
</g>
<!-- Node14&#45;&gt;Node3 -->
<g id="edge32" class="edge">
<title>Node14&#45;&gt;Node3</title>
<path fill="none" stroke="midnightblue" d="M265.76,-112.44C298.46,-103.2 350.68,-88.44 386.68,-78.26"/>
<polygon fill="midnightblue" stroke="midnightblue" points="387.71,-81.61 396.38,-75.52 385.8,-74.87 387.71,-81.61"/>
</g>
<!-- Node14&#45;&gt;Node5 -->
<g id="edge28" class="edge">
<title>Node14&#45;&gt;Node5</title>
<path fill="none" stroke="midnightblue" d="M247.3,-112.31C267.49,-97.94 310.48,-69.45 351.5,-56 472.31,-16.38 512.87,-44.79 641.44,-19.89"/>
<polygon fill="midnightblue" stroke="midnightblue" points="642.14,-23.32 651.26,-17.92 640.76,-16.46 642.14,-23.32"/>
</g>
<!-- Node14&#45;&gt;Node6 -->
<g id="edge29" class="edge">
<title>Node14&#45;&gt;Node6</title>
<path fill="none" stroke="midnightblue" d="M238.87,-112.07C244.83,-97.6 258.72,-69.32 280.5,-56 381.05,5.5 428.51,-37.24 549.85,-19.92"/>
<polygon fill="midnightblue" stroke="midnightblue" points="550.53,-23.35 559.88,-18.37 549.46,-16.44 550.53,-23.35"/>
</g>
<!-- Node14&#45;&gt;Node8 -->
<g id="edge31" class="edge">
<title>Node14&#45;&gt;Node8</title>
<path fill="none" stroke="midnightblue" d="M225.54,-112.11C212.23,-99.13 191.71,-74.51 204.5,-56 215.73,-39.75 233.63,-29.36 252.17,-22.73"/>
<polygon fill="midnightblue" stroke="midnightblue" points="253.46,-25.99 261.9,-19.58 251.3,-19.33 253.46,-25.99"/>
</g>
<!-- Node14&#45;&gt;Node10 -->
<g id="edge30" class="edge">
<title>Node14&#45;&gt;Node10</title>
<path fill="none" stroke="midnightblue" d="M307.12,-112.44C405.35,-100.71 578.1,-80.07 652.16,-71.22"/>
<polygon fill="midnightblue" stroke="midnightblue" points="652.84,-74.67 662.35,-70 652.01,-67.72 652.84,-74.67"/>
</g>
<!-- Node15&#45;&gt;Node3 -->
<g id="edge38" class="edge">
<title>Node15&#45;&gt;Node3</title>
<path fill="none" stroke="midnightblue" d="M696.64,-112.44C639.82,-102.89 547.88,-87.42 487.31,-77.23"/>
<polygon fill="midnightblue" stroke="midnightblue" points="487.57,-73.72 477.13,-75.52 486.41,-80.63 487.57,-73.72"/>
</g>
<!-- Node15&#45;&gt;Node5 -->
<g id="edge34" class="edge">
<title>Node15&#45;&gt;Node5</title>
<path fill="none" stroke="midnightblue" d="M775.38,-112.43C806.23,-101.48 849.28,-80.92 830.5,-56 815.48,-36.06 746.85,-22.26 705.46,-15.59"/>
<polygon fill="midnightblue" stroke="midnightblue" points="705.99,-12.13 695.57,-14.05 704.91,-19.05 705.99,-12.13"/>
</g>
<!-- Node15&#45;&gt;Node6 -->
<g id="edge35" class="edge">
<title>Node15&#45;&gt;Node6</title>
<path fill="none" stroke="midnightblue" d="M751.84,-112.42C757.96,-98.95 767.08,-72.67 754.5,-56 747.6,-46.87 687.25,-31.5 643.18,-21.3"/>
<polygon fill="midnightblue" stroke="midnightblue" points="643.74,-17.84 633.21,-19.02 642.18,-24.66 643.74,-17.84"/>
</g>
<!-- Node15&#45;&gt;Node8 -->
<g id="edge37" class="edge">
<title>Node15&#45;&gt;Node8</title>
<path fill="none" stroke="midnightblue" d="M746.76,-112.15C745.06,-97.81 739.48,-69.71 721.5,-56 667.04,-14.48 488.49,-26.91 403.8,-19.98"/>
<polygon fill="midnightblue" stroke="midnightblue" points="404,-16.48 393.71,-19 403.33,-23.45 404,-16.48"/>
</g>
<!-- Node15&#45;&gt;Node10 -->
<g id="edge36" class="edge">
<title>Node15&#45;&gt;Node10</title>
<path fill="none" stroke="midnightblue" d="M737.86,-112.32C728.99,-104.34 715.63,-92.31 704.89,-82.65"/>
<polygon fill="midnightblue" stroke="midnightblue" points="707.09,-79.92 697.32,-75.83 702.41,-85.13 707.09,-79.92"/>
</g>
<!-- Node16&#45;&gt;Node3 -->
<g id="edge44" class="edge">
<title>Node16&#45;&gt;Node3</title>
<path fill="none" stroke="midnightblue" d="M434.01,-112.08C432.82,-104.93 431.11,-94.64 429.62,-85.69"/>
<polygon fill="midnightblue" stroke="midnightblue" points="433.05,-85.04 427.96,-75.75 426.15,-86.19 433.05,-85.04"/>
</g>
<!-- Node16&#45;&gt;Node5 -->
<g id="edge41" class="edge">
<title>Node16&#45;&gt;Node5</title>
<path fill="none" stroke="midnightblue" d="M454.18,-112.37C495.89,-93.09 596.79,-46.45 645.83,-23.79"/>
<polygon fill="midnightblue" stroke="midnightblue" points="647.3,-26.96 654.91,-19.59 644.37,-20.61 647.3,-26.96"/>
</g>
<!-- Node16&#45;&gt;Node6 -->
<g id="edge42" class="edge">
<title>Node16&#45;&gt;Node6</title>
<path fill="none" stroke="midnightblue" d="M448.16,-112.38C461.45,-103.33 482.95,-88.67 501.5,-76 527,-58.58 556.33,-38.51 575.57,-25.33"/>
<polygon fill="midnightblue" stroke="midnightblue" points="577.63,-28.17 583.9,-19.63 573.68,-22.39 577.63,-28.17"/>
</g>
<!-- Node16&#45;&gt;Node8 -->
<g id="edge43" class="edge">
<title>Node16&#45;&gt;Node8</title>
<path fill="none" stroke="midnightblue" d="M375.82,-112.43C354.07,-106.1 331.62,-95.11 318.5,-76 309.21,-62.47 312.05,-43.41 316.26,-29.42"/>
<polygon fill="midnightblue" stroke="midnightblue" points="319.59,-30.49 319.56,-19.9 312.98,-28.2 319.59,-30.49"/>
</g>
<!-- Node16&#45;&gt;Node10 -->
<g id="edge40" class="edge">
<title>Node16&#45;&gt;Node10</title>
<path fill="none" stroke="midnightblue" d="M475.43,-112.44C524.2,-101.99 605.93,-84.48 652.4,-74.52"/>
<polygon fill="midnightblue" stroke="midnightblue" points="653.26,-77.92 662.31,-72.4 651.79,-71.07 653.26,-77.92"/>
</g>
</g>
</svg>
