<?xml version="1.0" encoding="UTF-8" standalone="no"?>
<!DOCTYPE svg PUBLIC "-//W3C//DTD SVG 1.1//EN"
 "http://www.w3.org/Graphics/SVG/1.1/DTD/svg11.dtd">
<!-- Generated by graphviz version 8.0.5 (20230430.1635)
 -->
<!-- Title: lhashes_hash.h Pages: 1 -->
<svg width="658pt" height="138pt"
 viewBox="0.00 0.00 657.51 137.75" xmlns="http://www.w3.org/2000/svg" xmlns:xlink="http://www.w3.org/1999/xlink">
<g id="graph0" class="graph" transform="scale(1 1) rotate(0) translate(4 133.75)">
<title>lhashes_hash.h</title>
<!-- Node1 -->
<g id="Node000001" class="node">
<title>Node1</title>
<g id="a_Node000001"><a xlink:title="This file defines the hash::Hasher class and the hash::hash() free functions.">
<polygon fill="#999999" stroke="#666666" points="305.26,-129.75 221.01,-129.75 221.01,-110.5 305.26,-110.5 305.26,-129.75"/>
<text text-anchor="middle" x="263.13" y="-116.25" font-family="Helvetica,sans-Serif" font-size="10.00">lhashes_hash.h</text>
</a>
</g>
</g>
<!-- Node2 -->
<g id="Node000002" class="node">
<title>Node2</title>
<g id="a_Node000002"><a xlink:href="lhashes_8h.html" target="_top" xlink:title="The main header for the limes_hashes library.">
<polygon fill="white" stroke="#666666" points="292.13,-19.25 234.13,-19.25 234.13,0 292.13,0 292.13,-19.25"/>
<text text-anchor="middle" x="263.13" y="-5.75" font-family="Helvetica,sans-Serif" font-size="10.00">lhashes.h</text>
</a>
</g>
</g>
<!-- Node1&#45;&gt;Node2 -->
<g id="edge1_Node000001_Node000002" class="edge">
<title>Node1&#45;&gt;Node2</title>
<g id="a_edge1_Node000001_Node000002"><a xlink:title=" ">
<path fill="none" stroke="#63b8ff" d="M209.76,-117.73C141.75,-114.7 29.89,-105.08 4.13,-74.5 -1.38,-67.96 -1.38,-61.79 4.13,-55.25 33.24,-20.7 172.26,-12.9 233.76,-11.14"/>
<polygon fill="#63b8ff" stroke="#63b8ff" points="209.56,-121.27 219.69,-118.18 209.84,-114.27 209.56,-121.27"/>
</a>
</g>
</g>
<!-- Node3 -->
<g id="Node000003" class="node">
<title>Node3</title>
<g id="a_Node000003"><a xlink:href="lhashes__md5_8h.html" target="_top" xlink:title="This file defines the hash::MD5 class.">
<polygon fill="white" stroke="#666666" points="95.13,-74.5 13.13,-74.5 13.13,-55.25 95.13,-55.25 95.13,-74.5"/>
<text text-anchor="middle" x="54.13" y="-61" font-family="Helvetica,sans-Serif" font-size="10.00">lhashes_md5.h</text>
</a>
</g>
</g>
<!-- Node1&#45;&gt;Node3 -->
<g id="edge2_Node000001_Node000003" class="edge">
<title>Node1&#45;&gt;Node3</title>
<g id="a_edge2_Node000001_Node000003"><a xlink:title=" ">
<path fill="none" stroke="#63b8ff" d="M217.3,-107.45C178.93,-97.67 124.95,-83.92 89.76,-74.95"/>
<polygon fill="#63b8ff" stroke="#63b8ff" points="216.13,-111.01 226.68,-110.09 217.85,-104.23 216.13,-111.01"/>
</a>
</g>
</g>
<!-- Node4 -->
<g id="Node000004" class="node">
<title>Node4</title>
<g id="a_Node000004"><a xlink:href="lhashes__sha1_8h.html" target="_top" xlink:title="This file defines the hash::SHA1 class.">
<polygon fill="white" stroke="#666666" points="197.26,-74.5 113.01,-74.5 113.01,-55.25 197.26,-55.25 197.26,-74.5"/>
<text text-anchor="middle" x="155.13" y="-61" font-family="Helvetica,sans-Serif" font-size="10.00">lhashes_sha1.h</text>
</a>
</g>
</g>
<!-- Node1&#45;&gt;Node4 -->
<g id="edge4_Node000001_Node000004" class="edge">
<title>Node1&#45;&gt;Node4</title>
<g id="a_edge4_Node000001_Node000004"><a xlink:title=" ">
<path fill="none" stroke="#63b8ff" d="M235.01,-105.26C215.62,-95.7 190.41,-83.27 173.54,-74.95"/>
<polygon fill="#63b8ff" stroke="#63b8ff" points="233.3,-108.81 243.81,-110.09 236.39,-102.53 233.3,-108.81"/>
</a>
</g>
</g>
<!-- Node5 -->
<g id="Node000005" class="node">
<title>Node5</title>
<g id="a_Node000005"><a xlink:href="lhashes__sha224_8h.html" target="_top" xlink:title="This file defines the hash::SHA224 class.">
<polygon fill="white" stroke="#666666" points="310.51,-74.5 215.76,-74.5 215.76,-55.25 310.51,-55.25 310.51,-74.5"/>
<text text-anchor="middle" x="263.13" y="-61" font-family="Helvetica,sans-Serif" font-size="10.00">lhashes_sha224.h</text>
</a>
</g>
</g>
<!-- Node1&#45;&gt;Node5 -->
<g id="edge6_Node000001_Node000005" class="edge">
<title>Node1&#45;&gt;Node5</title>
<g id="a_edge6_Node000001_Node000005"><a xlink:title=" ">
<path fill="none" stroke="#63b8ff" d="M263.13,-99.46C263.13,-91.02 263.13,-81.58 263.13,-74.86"/>
<polygon fill="#63b8ff" stroke="#63b8ff" points="259.63,-99.33 263.13,-109.33 266.63,-99.33 259.63,-99.33"/>
</a>
</g>
</g>
<!-- Node6 -->
<g id="Node000006" class="node">
<title>Node6</title>
<g id="a_Node000006"><a xlink:href="lhashes__sha256_8h.html" target="_top" xlink:title="This file defines the hash::SHA256 class.">
<polygon fill="white" stroke="#666666" points="423.51,-74.5 328.76,-74.5 328.76,-55.25 423.51,-55.25 423.51,-74.5"/>
<text text-anchor="middle" x="376.13" y="-61" font-family="Helvetica,sans-Serif" font-size="10.00">lhashes_sha256.h</text>
</a>
</g>
</g>
<!-- Node1&#45;&gt;Node6 -->
<g id="edge8_Node000001_Node000006" class="edge">
<title>Node1&#45;&gt;Node6</title>
<g id="a_edge8_Node000001_Node000006"><a xlink:title=" ">
<path fill="none" stroke="#63b8ff" d="M292,-105.52C312.36,-95.93 339.06,-83.34 356.87,-74.95"/>
<polygon fill="#63b8ff" stroke="#63b8ff" points="290.86,-102.66 283.3,-110.09 293.84,-109 290.86,-102.66"/>
</a>
</g>
</g>
<!-- Node7 -->
<g id="Node000007" class="node">
<title>Node7</title>
<g id="a_Node000007"><a xlink:href="lhashes__sha384_8h.html" target="_top" xlink:title="This file defines the hash::SHA384 class.">
<polygon fill="white" stroke="#666666" points="536.51,-74.5 441.76,-74.5 441.76,-55.25 536.51,-55.25 536.51,-74.5"/>
<text text-anchor="middle" x="489.13" y="-61" font-family="Helvetica,sans-Serif" font-size="10.00">lhashes_sha384.h</text>
</a>
</g>
</g>
<!-- Node1&#45;&gt;Node7 -->
<g id="edge10_Node000001_Node000007" class="edge">
<title>Node1&#45;&gt;Node7</title>
<g id="a_edge10_Node000001_Node000007"><a xlink:title=" ">
<path fill="none" stroke="#63b8ff" d="M312.43,-107.51C353.97,-97.72 412.57,-83.92 450.7,-74.93"/>
<polygon fill="#63b8ff" stroke="#63b8ff" points="311.66,-104.33 302.73,-110.03 313.26,-111.14 311.66,-104.33"/>
</a>
</g>
</g>
<!-- Node8 -->
<g id="Node000008" class="node">
<title>Node8</title>
<g id="a_Node000008"><a xlink:href="lhashes__sha512_8h.html" target="_top" xlink:title="This file defines the hash::SHA512 class.">
<polygon fill="white" stroke="#666666" points="649.51,-74.5 554.76,-74.5 554.76,-55.25 649.51,-55.25 649.51,-74.5"/>
<text text-anchor="middle" x="602.13" y="-61" font-family="Helvetica,sans-Serif" font-size="10.00">lhashes_sha512.h</text>
</a>
</g>
</g>
<!-- Node1&#45;&gt;Node8 -->
<g id="edge12_Node000001_Node000008" class="edge">
<title>Node1&#45;&gt;Node8</title>
<g id="a_edge12_Node000001_Node000008"><a xlink:title=" ">
<path fill="none" stroke="#63b8ff" d="M316.2,-110.79C381.51,-100.53 491.44,-83.26 554.26,-73.39"/>
<polygon fill="#63b8ff" stroke="#63b8ff" points="316.06,-107.43 306.73,-112.43 317.15,-114.34 316.06,-107.43"/>
</a>
</g>
</g>
<!-- Node3&#45;&gt;Node2 -->
<g id="edge3_Node000003_Node000002" class="edge">
<title>Node3&#45;&gt;Node2</title>
<g id="a_edge3_Node000003_Node000002"><a xlink:title=" ">
<path fill="none" stroke="#63b8ff" d="M100.07,-52.17C140.85,-41.78 199.21,-26.91 233.92,-18.07"/>
<polygon fill="#63b8ff" stroke="#63b8ff" points="99.41,-48.98 90.59,-54.84 101.14,-55.76 99.41,-48.98"/>
</a>
</g>
</g>
<!-- Node4&#45;&gt;Node2 -->
<g id="edge5_Node000004_Node000002" class="edge">
<title>Node4&#45;&gt;Node2</title>
<g id="a_edge5_Node000004_Node000002"><a xlink:title=" ">
<path fill="none" stroke="#63b8ff" d="M183.26,-50.01C202.65,-40.45 227.86,-28.02 244.72,-19.7"/>
<polygon fill="#63b8ff" stroke="#63b8ff" points="181.88,-47.28 174.45,-54.84 184.97,-53.56 181.88,-47.28"/>
</a>
</g>
</g>
<!-- Node5&#45;&gt;Node2 -->
<g id="edge7_Node000005_Node000002" class="edge">
<title>Node5&#45;&gt;Node2</title>
<g id="a_edge7_Node000005_Node000002"><a xlink:title=" ">
<path fill="none" stroke="#63b8ff" d="M263.13,-44.21C263.13,-35.77 263.13,-26.33 263.13,-19.61"/>
<polygon fill="#63b8ff" stroke="#63b8ff" points="259.63,-44.08 263.13,-54.08 266.63,-44.08 259.63,-44.08"/>
</a>
</g>
</g>
<!-- Node6&#45;&gt;Node2 -->
<g id="edge9_Node000006_Node000002" class="edge">
<title>Node6&#45;&gt;Node2</title>
<g id="a_edge9_Node000006_Node000002"><a xlink:title=" ">
<path fill="none" stroke="#63b8ff" d="M347.26,-50.27C326.91,-40.68 300.2,-28.09 282.4,-19.7"/>
<polygon fill="#63b8ff" stroke="#63b8ff" points="345.43,-53.75 355.97,-54.84 348.41,-47.41 345.43,-53.75"/>
</a>
</g>
</g>
<!-- Node7&#45;&gt;Node2 -->
<g id="edge11_Node000007_Node000002" class="edge">
<title>Node7&#45;&gt;Node2</title>
<g id="a_edge11_Node000007_Node000002"><a xlink:title=" ">
<path fill="none" stroke="#63b8ff" d="M439.85,-52.26C394.88,-41.67 329.92,-26.36 292.57,-17.56"/>
<polygon fill="#63b8ff" stroke="#63b8ff" points="439,-55.89 449.54,-54.78 440.61,-49.08 439,-55.89"/>
</a>
</g>
</g>
<!-- Node8&#45;&gt;Node2 -->
<g id="edge13_Node000008_Node000002" class="edge">
<title>Node8&#45;&gt;Node2</title>
<g id="a_edge13_Node000008_Node000002"><a xlink:title=" ">
<path fill="none" stroke="#63b8ff" d="M543.86,-54.72C470.69,-43.23 348.02,-23.96 292.27,-15.2"/>
<polygon fill="#63b8ff" stroke="#63b8ff" points="542.86,-58.26 553.28,-56.36 543.95,-51.35 542.86,-58.26"/>
</a>
</g>
</g>
</g>
</svg>
