<?xml version="1.0" encoding="UTF-8" standalone="no"?>
<!DOCTYPE svg PUBLIC "-//W3C//DTD SVG 1.1//EN"
 "http://www.w3.org/Graphics/SVG/1.1/DTD/svg11.dtd">
<!-- Generated by graphviz version 8.0.5 (20230430.1635)
 -->
<!-- Title: lhashes_common.h Pages: 1 -->
<svg width="200pt" height="83pt"
 viewBox="0.00 0.00 199.88 82.50" xmlns="http://www.w3.org/2000/svg" xmlns:xlink="http://www.w3.org/1999/xlink">
<g id="graph0" class="graph" transform="scale(1 1) rotate(0) translate(4 78.5)">
<title>lhashes_common.h</title>
<!-- Node1 -->
<g id="Node000001" class="node">
<title>Node1</title>
<g id="a_Node000001"><a xlink:title="This file defines internal utilities common to the various hash algorithms.">
<polygon fill="#999999" stroke="#666666" points="166.62,-74.5 65.88,-74.5 65.88,-55.25 166.62,-55.25 166.62,-74.5"/>
<text text-anchor="middle" x="116.25" y="-61" font-family="Helvetica,sans-Serif" font-size="10.00">lhashes_common.h</text>
</a>
</g>
</g>
<!-- Node2 -->
<g id="Node000002" class="node">
<title>Node2</title>
<g id="a_Node000002"><a xlink:title=" ">
<polygon fill="#e0e0e0" stroke="#999999" points="128.5,-19.25 0,-19.25 0,0 128.5,0 128.5,-19.25"/>
<text text-anchor="middle" x="64.25" y="-5.75" font-family="Helvetica,sans-Serif" font-size="10.00">lhashes/lhashes_Export.h</text>
</a>
</g>
</g>
<!-- Node1&#45;&gt;Node2 -->
<g id="edge1_Node000001_Node000002" class="edge">
<title>Node1&#45;&gt;Node2</title>
<g id="a_edge1_Node000001_Node000002"><a xlink:title=" ">
<path fill="none" stroke="#63b8ff" d="M107.66,-55.08C100.33,-47.57 89.58,-36.56 80.61,-27.38"/>
<polygon fill="#63b8ff" stroke="#63b8ff" points="83.51,-25.32 74.02,-20.61 78.51,-30.21 83.51,-25.32"/>
</a>
</g>
</g>
<!-- Node3 -->
<g id="Node000003" class="node">
<title>Node3</title>
<g id="a_Node000003"><a xlink:title=" ">
<polygon fill="#e0e0e0" stroke="#999999" points="191.88,-19.25 146.62,-19.25 146.62,0 191.88,0 191.88,-19.25"/>
<text text-anchor="middle" x="169.25" y="-5.75" font-family="Helvetica,sans-Serif" font-size="10.00">cstdint</text>
</a>
</g>
</g>
<!-- Node1&#45;&gt;Node3 -->
<g id="edge2_Node000001_Node000003" class="edge">
<title>Node1&#45;&gt;Node3</title>
<g id="a_edge2_Node000001_Node000003"><a xlink:title=" ">
<path fill="none" stroke="#63b8ff" d="M125,-55.08C132.48,-47.57 143.43,-36.56 152.58,-27.38"/>
<polygon fill="#63b8ff" stroke="#63b8ff" points="154.73,-30.17 159.31,-20.61 149.77,-25.23 154.73,-30.17"/>
</a>
</g>
</g>
</g>
</svg>
