<?xml version="1.0" encoding="UTF-8" standalone="no"?>
<!DOCTYPE svg PUBLIC "-//W3C//DTD SVG 1.1//EN"
 "http://www.w3.org/Graphics/SVG/1.1/DTD/svg11.dtd">
<!-- Generated by graphviz version 2.43.0 (0)
 -->
<!-- Title: lhashes_sha512.h Pages: 1 -->
<svg width="472pt" height="140pt"
 viewBox="0.00 0.00 472.00 140.00" xmlns="http://www.w3.org/2000/svg" xmlns:xlink="http://www.w3.org/1999/xlink">
<g id="graph0" class="graph" transform="scale(1 1) rotate(0) translate(4 136)">
<title>lhashes_sha512.h</title>
<polygon fill="white" stroke="transparent" points="-4,4 -4,-136 468,-136 468,4 -4,4"/>
<!-- Node1 -->
<g id="node1" class="node">
<title>Node1</title>
<g id="a_node1"><a xlink:title="This file defines the hash::SHA512 class.">
<polygon fill="#bfbfbf" stroke="black" points="64,-112.5 64,-131.5 168,-131.5 168,-112.5 64,-112.5"/>
<text text-anchor="middle" x="116" y="-119.5" font-family="Helvetica,sans-Serif" font-size="10.00">lhashes_sha512.h</text>
</a>
</g>
</g>
<!-- Node2 -->
<g id="node2" class="node">
<title>Node2</title>
<g id="a_node2"><a xlink:title=" ">
<polygon fill="white" stroke="#bfbfbf" points="0,-56.5 0,-75.5 50,-75.5 50,-56.5 0,-56.5"/>
<text text-anchor="middle" x="25" y="-63.5" font-family="Helvetica,sans-Serif" font-size="10.00">cstdint</text>
</a>
</g>
</g>
<!-- Node1&#45;&gt;Node2 -->
<g id="edge1" class="edge">
<title>Node1&#45;&gt;Node2</title>
<path fill="none" stroke="midnightblue" d="M101.38,-112.32C87.05,-103.82 64.99,-90.73 48.25,-80.8"/>
<polygon fill="midnightblue" stroke="midnightblue" points="49.97,-77.75 39.58,-75.65 46.4,-83.77 49.97,-77.75"/>
</g>
<!-- Node3 -->
<g id="node3" class="node">
<title>Node3</title>
<g id="a_node3"><a xlink:title=" ">
<polygon fill="white" stroke="#bfbfbf" points="22,-0.5 22,-19.5 66,-19.5 66,-0.5 22,-0.5"/>
<text text-anchor="middle" x="44" y="-7.5" font-family="Helvetica,sans-Serif" font-size="10.00">string</text>
</a>
</g>
</g>
<!-- Node1&#45;&gt;Node3 -->
<g id="edge2" class="edge">
<title>Node1&#45;&gt;Node3</title>
<path fill="none" stroke="midnightblue" d="M110.35,-112.37C98.47,-94.22 70.71,-51.8 55.12,-27.99"/>
<polygon fill="midnightblue" stroke="midnightblue" points="58.03,-26.04 49.62,-19.59 52.17,-29.88 58.03,-26.04"/>
</g>
<!-- Node4 -->
<g id="node4" class="node">
<title>Node4</title>
<g id="a_node4"><a xlink:title=" ">
<polygon fill="white" stroke="#bfbfbf" points="84.5,-0.5 84.5,-19.5 157.5,-19.5 157.5,-0.5 84.5,-0.5"/>
<text text-anchor="middle" x="121" y="-7.5" font-family="Helvetica,sans-Serif" font-size="10.00">string_view</text>
</a>
</g>
</g>
<!-- Node1&#45;&gt;Node4 -->
<g id="edge3" class="edge">
<title>Node1&#45;&gt;Node4</title>
<path fill="none" stroke="midnightblue" d="M116.39,-112.37C117.2,-94.62 119.06,-53.67 120.15,-29.6"/>
<polygon fill="midnightblue" stroke="midnightblue" points="123.65,-29.74 120.61,-19.59 116.66,-29.42 123.65,-29.74"/>
</g>
<!-- Node5 -->
<g id="node5" class="node">
<title>Node5</title>
<g id="a_node5"><a xlink:title=" ">
<polygon fill="white" stroke="#bfbfbf" points="324,-0.5 324,-19.5 464,-19.5 464,-0.5 324,-0.5"/>
<text text-anchor="middle" x="394" y="-7.5" font-family="Helvetica,sans-Serif" font-size="10.00">lhashes/lhashes_Export.h</text>
</a>
</g>
</g>
<!-- Node1&#45;&gt;Node5 -->
<g id="edge4" class="edge">
<title>Node1&#45;&gt;Node5</title>
<path fill="none" stroke="midnightblue" d="M161.6,-112.45C196.28,-105.1 244.71,-92.98 285,-76 317.72,-62.21 352.44,-40.02 373.67,-25.48"/>
<polygon fill="midnightblue" stroke="midnightblue" points="375.95,-28.15 382.17,-19.57 371.96,-22.41 375.95,-28.15"/>
</g>
<!-- Node6 -->
<g id="node6" class="node">
<title>Node6</title>
<g id="a_node6"><a xlink:href="lhashes__hash_8h.html" target="_top" xlink:title="This file defines the hash::Hasher class and the hash::hash() free functions.">
<polygon fill="white" stroke="black" points="144,-56.5 144,-75.5 276,-75.5 276,-56.5 144,-56.5"/>
<text text-anchor="middle" x="210" y="-63.5" font-family="Helvetica,sans-Serif" font-size="10.00">lhashes/lhashes_hash.h</text>
</a>
</g>
</g>
<!-- Node1&#45;&gt;Node6 -->
<g id="edge5" class="edge">
<title>Node1&#45;&gt;Node6</title>
<path fill="none" stroke="midnightblue" d="M131.1,-112.32C145.9,-103.82 168.69,-90.73 185.98,-80.8"/>
<polygon fill="midnightblue" stroke="midnightblue" points="188.01,-83.67 194.93,-75.65 184.52,-77.6 188.01,-83.67"/>
</g>
<!-- Node6&#45;&gt;Node3 -->
<g id="edge7" class="edge">
<title>Node6&#45;&gt;Node3</title>
<path fill="none" stroke="midnightblue" d="M183.7,-56.44C154.41,-46.92 107.09,-31.52 75.76,-21.33"/>
<polygon fill="midnightblue" stroke="midnightblue" points="76.79,-17.99 66.2,-18.22 74.62,-24.64 76.79,-17.99"/>
</g>
<!-- Node6&#45;&gt;Node4 -->
<g id="edge8" class="edge">
<title>Node6&#45;&gt;Node4</title>
<path fill="none" stroke="midnightblue" d="M195.7,-56.32C181.82,-47.9 160.51,-34.97 144.2,-25.07"/>
<polygon fill="midnightblue" stroke="midnightblue" points="145.63,-21.85 135.26,-19.65 142,-27.83 145.63,-21.85"/>
</g>
<!-- Node6&#45;&gt;Node5 -->
<g id="edge10" class="edge">
<title>Node6&#45;&gt;Node5</title>
<path fill="none" stroke="midnightblue" d="M239.16,-56.44C270.51,-47.24 320.53,-32.56 355.2,-22.39"/>
<polygon fill="midnightblue" stroke="midnightblue" points="356.37,-25.69 364.98,-19.52 354.4,-18.97 356.37,-25.69"/>
</g>
<!-- Node7 -->
<g id="node7" class="node">
<title>Node7</title>
<g id="a_node7"><a xlink:title=" ">
<polygon fill="white" stroke="#bfbfbf" points="252.5,-0.5 252.5,-19.5 305.5,-19.5 305.5,-0.5 252.5,-0.5"/>
<text text-anchor="middle" x="279" y="-7.5" font-family="Helvetica,sans-Serif" font-size="10.00">cstddef</text>
</a>
</g>
</g>
<!-- Node6&#45;&gt;Node7 -->
<g id="edge6" class="edge">
<title>Node6&#45;&gt;Node7</title>
<path fill="none" stroke="midnightblue" d="M221.09,-56.32C231.49,-48.18 247.26,-35.84 259.72,-26.09"/>
<polygon fill="midnightblue" stroke="midnightblue" points="261.99,-28.75 267.71,-19.83 257.68,-23.24 261.99,-28.75"/>
</g>
<!-- Node8 -->
<g id="node8" class="node">
<title>Node8</title>
<g id="a_node8"><a xlink:title=" ">
<polygon fill="white" stroke="#bfbfbf" points="176,-0.5 176,-19.5 234,-19.5 234,-0.5 176,-0.5"/>
<text text-anchor="middle" x="205" y="-7.5" font-family="Helvetica,sans-Serif" font-size="10.00">memory</text>
</a>
</g>
</g>
<!-- Node6&#45;&gt;Node8 -->
<g id="edge9" class="edge">
<title>Node6&#45;&gt;Node8</title>
<path fill="none" stroke="midnightblue" d="M209.17,-56.08C208.52,-49.01 207.58,-38.86 206.76,-29.99"/>
<polygon fill="midnightblue" stroke="midnightblue" points="210.22,-29.39 205.81,-19.75 203.25,-30.03 210.22,-29.39"/>
</g>
</g>
</svg>
