<?xml version="1.0" encoding="UTF-8" standalone="no"?>
<!DOCTYPE svg PUBLIC "-//W3C//DTD SVG 1.1//EN"
 "http://www.w3.org/Graphics/SVG/1.1/DTD/svg11.dtd">
<!-- Generated by graphviz version 8.0.5 (20230430.1635)
 -->
<!-- Title: lhashes.h Pages: 1 -->
<svg width="850pt" height="193pt"
 viewBox="0.00 0.00 850.24 193.00" xmlns="http://www.w3.org/2000/svg" xmlns:xlink="http://www.w3.org/1999/xlink">
<g id="graph0" class="graph" transform="scale(1 1) rotate(0) translate(4 189)">
<title>lhashes.h</title>
<!-- Node1 -->
<g id="Node000001" class="node">
<title>Node1</title>
<g id="a_Node000001"><a xlink:title="The main header for the limes_hashes library.">
<polygon fill="#999999" stroke="#666666" points="400.39,-185 342.39,-185 342.39,-165.75 400.39,-165.75 400.39,-185"/>
<text text-anchor="middle" x="371.39" y="-171.5" font-family="Helvetica,sans-Serif" font-size="10.00">lhashes.h</text>
</a>
</g>
</g>
<!-- Node2 -->
<g id="Node000002" class="node">
<title>Node2</title>
<g id="a_Node000002"><a xlink:href="lhashes__hash_8h.html" target="_top" xlink:title="This file defines the hash::Hasher class and the hash::hash() free functions.">
<polygon fill="white" stroke="#666666" points="250.51,-74.5 160.26,-74.5 160.26,-55.25 250.51,-55.25 250.51,-74.5"/>
<text text-anchor="middle" x="205.39" y="-61" font-family="Helvetica,sans-Serif" font-size="10.00">./lhashes_hash.h</text>
</a>
</g>
</g>
<!-- Node1&#45;&gt;Node2 -->
<g id="edge1_Node000001_Node000002" class="edge">
<title>Node1&#45;&gt;Node2</title>
<g id="a_edge1_Node000001_Node000002"><a xlink:title=" ">
<path fill="none" stroke="#63b8ff" d="M341.95,-170.85C298.41,-164.96 220.18,-151.58 203.39,-129.75 193.77,-117.24 195.46,-98.93 198.85,-85.11"/>
<polygon fill="#63b8ff" stroke="#63b8ff" points="202.42,-86.37 201.9,-75.79 195.71,-84.39 202.42,-86.37"/>
</a>
</g>
</g>
<!-- Node8 -->
<g id="Node000008" class="node">
<title>Node8</title>
<g id="a_Node000008"><a xlink:href="lhashes__md5_8h.html" target="_top" xlink:title="This file defines the hash::MD5 class.">
<polygon fill="white" stroke="#666666" points="646.39,-129.75 558.39,-129.75 558.39,-110.5 646.39,-110.5 646.39,-129.75"/>
<text text-anchor="middle" x="602.39" y="-116.25" font-family="Helvetica,sans-Serif" font-size="10.00">./lhashes_md5.h</text>
</a>
</g>
</g>
<!-- Node1&#45;&gt;Node8 -->
<g id="edge7_Node000001_Node000008" class="edge">
<title>Node1&#45;&gt;Node8</title>
<g id="a_edge7_Node000001_Node000008"><a xlink:title=" ">
<path fill="none" stroke="#63b8ff" d="M400.65,-167.63C438.75,-158.85 505.94,-143.36 552.24,-132.68"/>
<polygon fill="#63b8ff" stroke="#63b8ff" points="552.99,-135.87 561.95,-130.22 551.42,-129.05 552.99,-135.87"/>
</a>
</g>
</g>
<!-- Node10 -->
<g id="Node000010" class="node">
<title>Node10</title>
<g id="a_Node000010"><a xlink:href="lhashes__sha1_8h.html" target="_top" xlink:title="This file defines the hash::SHA1 class.">
<polygon fill="white" stroke="#666666" points="302.51,-129.75 212.26,-129.75 212.26,-110.5 302.51,-110.5 302.51,-129.75"/>
<text text-anchor="middle" x="257.39" y="-116.25" font-family="Helvetica,sans-Serif" font-size="10.00">./lhashes_sha1.h</text>
</a>
</g>
</g>
<!-- Node1&#45;&gt;Node10 -->
<g id="edge13_Node000001_Node000010" class="edge">
<title>Node1&#45;&gt;Node10</title>
<g id="a_edge13_Node000001_Node000010"><a xlink:title=" ">
<path fill="none" stroke="#63b8ff" d="M352.05,-165.34C334.12,-156.97 307.18,-144.38 286.62,-134.78"/>
<polygon fill="#63b8ff" stroke="#63b8ff" points="288.36,-131.26 277.82,-130.2 285.4,-137.61 288.36,-131.26"/>
</a>
</g>
</g>
<!-- Node11 -->
<g id="Node000011" class="node">
<title>Node11</title>
<g id="a_Node000011"><a xlink:href="lhashes__sha224_8h.html" target="_top" xlink:title="This file defines the hash::SHA224 class.">
<polygon fill="white" stroke="#666666" points="764.76,-129.75 664.01,-129.75 664.01,-110.5 764.76,-110.5 764.76,-129.75"/>
<text text-anchor="middle" x="714.39" y="-116.25" font-family="Helvetica,sans-Serif" font-size="10.00">./lhashes_sha224.h</text>
</a>
</g>
</g>
<!-- Node1&#45;&gt;Node11 -->
<g id="edge19_Node000001_Node000011" class="edge">
<title>Node1&#45;&gt;Node11</title>
<g id="a_edge19_Node000001_Node000011"><a xlink:title=" ">
<path fill="none" stroke="#63b8ff" d="M400.63,-169.83C456.3,-161.19 578.56,-142.21 652.96,-130.66"/>
<polygon fill="#63b8ff" stroke="#63b8ff" points="653.23,-134.01 662.57,-129.01 652.16,-127.09 653.23,-134.01"/>
</a>
</g>
</g>
<!-- Node13 -->
<g id="Node000013" class="node">
<title>Node13</title>
<g id="a_Node000013"><a xlink:href="lhashes__sha256_8h.html" target="_top" xlink:title="This file defines the hash::SHA256 class.">
<polygon fill="white" stroke="#666666" points="152.76,-129.75 52.01,-129.75 52.01,-110.5 152.76,-110.5 152.76,-129.75"/>
<text text-anchor="middle" x="102.39" y="-116.25" font-family="Helvetica,sans-Serif" font-size="10.00">./lhashes_sha256.h</text>
</a>
</g>
</g>
<!-- Node1&#45;&gt;Node13 -->
<g id="edge26_Node000001_Node000013" class="edge">
<title>Node1&#45;&gt;Node13</title>
<g id="a_edge26_Node000001_Node000013"><a xlink:title=" ">
<path fill="none" stroke="#63b8ff" d="M342.09,-168.57C298.21,-159.89 214.62,-143.34 158.68,-132.27"/>
<polygon fill="#63b8ff" stroke="#63b8ff" points="159.72,-128.71 149.23,-130.2 158.36,-135.57 159.72,-128.71"/>
</a>
</g>
</g>
<!-- Node14 -->
<g id="Node000014" class="node">
<title>Node14</title>
<g id="a_Node000014"><a xlink:href="lhashes__sha384_8h.html" target="_top" xlink:title="This file defines the hash::SHA384 class.">
<polygon fill="white" stroke="#666666" points="540.76,-129.75 440.01,-129.75 440.01,-110.5 540.76,-110.5 540.76,-129.75"/>
<text text-anchor="middle" x="490.39" y="-116.25" font-family="Helvetica,sans-Serif" font-size="10.00">./lhashes_sha384.h</text>
</a>
</g>
</g>
<!-- Node1&#45;&gt;Node14 -->
<g id="edge32_Node000001_Node000014" class="edge">
<title>Node1&#45;&gt;Node14</title>
<g id="a_edge32_Node000001_Node000014"><a xlink:title=" ">
<path fill="none" stroke="#63b8ff" d="M391.58,-165.34C410.38,-156.93 438.67,-144.27 460.17,-134.65"/>
<polygon fill="#63b8ff" stroke="#63b8ff" points="461.41,-137.48 469.1,-130.2 458.55,-131.09 461.41,-137.48"/>
</a>
</g>
</g>
<!-- Node15 -->
<g id="Node000015" class="node">
<title>Node15</title>
<g id="a_Node000015"><a xlink:href="lhashes__sha512_8h.html" target="_top" xlink:title="This file defines the hash::SHA512 class.">
<polygon fill="white" stroke="#666666" points="421.76,-129.75 321.01,-129.75 321.01,-110.5 421.76,-110.5 421.76,-129.75"/>
<text text-anchor="middle" x="371.39" y="-116.25" font-family="Helvetica,sans-Serif" font-size="10.00">./lhashes_sha512.h</text>
</a>
</g>
</g>
<!-- Node1&#45;&gt;Node15 -->
<g id="edge38_Node000001_Node000015" class="edge">
<title>Node1&#45;&gt;Node15</title>
<g id="a_edge38_Node000001_Node000015"><a xlink:title=" ">
<path fill="none" stroke="#63b8ff" d="M371.39,-165.58C371.39,-158.92 371.39,-149.49 371.39,-141.03"/>
<polygon fill="#63b8ff" stroke="#63b8ff" points="374.89,-141.11 371.39,-131.11 367.89,-141.11 374.89,-141.11"/>
</a>
</g>
</g>
<!-- Node3 -->
<g id="Node000003" class="node">
<title>Node3</title>
<g id="a_Node000003"><a xlink:title=" ">
<polygon fill="#e0e0e0" stroke="#999999" points="234.51,-19.25 186.26,-19.25 186.26,0 234.51,0 234.51,-19.25"/>
<text text-anchor="middle" x="210.39" y="-5.75" font-family="Helvetica,sans-Serif" font-size="10.00">cstddef</text>
</a>
</g>
</g>
<!-- Node2&#45;&gt;Node3 -->
<g id="edge2_Node000002_Node000003" class="edge">
<title>Node2&#45;&gt;Node3</title>
<g id="a_edge2_Node000002_Node000003"><a xlink:title=" ">
<path fill="none" stroke="#63b8ff" d="M206.22,-55.08C206.84,-48.42 207.73,-38.99 208.52,-30.53"/>
<polygon fill="#63b8ff" stroke="#63b8ff" points="212.1,-30.89 209.55,-20.61 205.13,-30.24 212.1,-30.89"/>
</a>
</g>
</g>
<!-- Node4 -->
<g id="Node000004" class="node">
<title>Node4</title>
<g id="a_Node000004"><a xlink:title=" ">
<polygon fill="#e0e0e0" stroke="#999999" points="445.39,-19.25 405.39,-19.25 405.39,0 445.39,0 445.39,-19.25"/>
<text text-anchor="middle" x="425.39" y="-5.75" font-family="Helvetica,sans-Serif" font-size="10.00">string</text>
</a>
</g>
</g>
<!-- Node2&#45;&gt;Node4 -->
<g id="edge3_Node000002_Node000004" class="edge">
<title>Node2&#45;&gt;Node4</title>
<g id="a_edge3_Node000002_Node000004"><a xlink:title=" ">
<path fill="none" stroke="#63b8ff" d="M247.67,-54.75C284.22,-46.7 338.69,-34.3 394.68,-19.59"/>
<polygon fill="#63b8ff" stroke="#63b8ff" points="395.38,-22.76 404.15,-16.81 393.59,-15.99 395.38,-22.76"/>
</a>
</g>
</g>
<!-- Node5 -->
<g id="Node000005" class="node">
<title>Node5</title>
<g id="a_Node000005"><a xlink:title=" ">
<polygon fill="#e0e0e0" stroke="#999999" points="387.14,-19.25 321.64,-19.25 321.64,0 387.14,0 387.14,-19.25"/>
<text text-anchor="middle" x="354.39" y="-5.75" font-family="Helvetica,sans-Serif" font-size="10.00">string_view</text>
</a>
</g>
</g>
<!-- Node2&#45;&gt;Node5 -->
<g id="edge4_Node000002_Node000005" class="edge">
<title>Node2&#45;&gt;Node5</title>
<g id="a_edge4_Node000002_Node000005"><a xlink:title=" ">
<path fill="none" stroke="#63b8ff" d="M230.67,-54.84C254.85,-46.2 291.57,-33.07 318.73,-23.37"/>
<polygon fill="#63b8ff" stroke="#63b8ff" points="319.75,-26.36 327.99,-19.7 317.4,-19.77 319.75,-26.36"/>
</a>
</g>
</g>
<!-- Node6 -->
<g id="Node000006" class="node">
<title>Node6</title>
<g id="a_Node000006"><a xlink:title=" ">
<polygon fill="#e0e0e0" stroke="#999999" points="304.01,-19.25 252.76,-19.25 252.76,0 304.01,0 304.01,-19.25"/>
<text text-anchor="middle" x="278.39" y="-5.75" font-family="Helvetica,sans-Serif" font-size="10.00">memory</text>
</a>
</g>
</g>
<!-- Node2&#45;&gt;Node6 -->
<g id="edge5_Node000002_Node000006" class="edge">
<title>Node2&#45;&gt;Node6</title>
<g id="a_edge5_Node000002_Node000006"><a xlink:title=" ">
<path fill="none" stroke="#63b8ff" d="M217.77,-54.84C228.64,-46.91 244.67,-35.22 257.52,-25.85"/>
<polygon fill="#63b8ff" stroke="#63b8ff" points="259.17,-28.25 265.19,-19.52 255.05,-22.59 259.17,-28.25"/>
</a>
</g>
</g>
<!-- Node7 -->
<g id="Node000007" class="node">
<title>Node7</title>
<g id="a_Node000007"><a xlink:title=" ">
<polygon fill="#e0e0e0" stroke="#999999" points="168.64,-19.25 40.14,-19.25 40.14,0 168.64,0 168.64,-19.25"/>
<text text-anchor="middle" x="104.39" y="-5.75" font-family="Helvetica,sans-Serif" font-size="10.00">lhashes/lhashes_Export.h</text>
</a>
</g>
</g>
<!-- Node2&#45;&gt;Node7 -->
<g id="edge6_Node000002_Node000007" class="edge">
<title>Node2&#45;&gt;Node7</title>
<g id="a_edge6_Node000002_Node000007"><a xlink:title=" ">
<path fill="none" stroke="#63b8ff" d="M188.26,-54.84C172.66,-46.62 149.37,-34.34 131.29,-24.81"/>
<polygon fill="#63b8ff" stroke="#63b8ff" points="133.09,-21.27 122.61,-19.7 129.82,-27.46 133.09,-21.27"/>
</a>
</g>
</g>
<!-- Node8&#45;&gt;Node2 -->
<g id="edge12_Node000008_Node000002" class="edge">
<title>Node8&#45;&gt;Node2</title>
<g id="a_edge12_Node000008_Node000002"><a xlink:title=" ">
<path fill="none" stroke="#63b8ff" d="M558.16,-111.82C555.19,-111.36 552.25,-110.92 549.39,-110.5 448.21,-95.71 329.91,-80.91 261.72,-72.62"/>
<polygon fill="#63b8ff" stroke="#63b8ff" points="262.16,-69.02 251.81,-71.29 261.31,-75.97 262.16,-69.02"/>
</a>
</g>
</g>
<!-- Node8&#45;&gt;Node4 -->
<g id="edge8_Node000008_Node000004" class="edge">
<title>Node8&#45;&gt;Node4</title>
<g id="a_edge8_Node000008_Node000004"><a xlink:title=" ">
<path fill="none" stroke="#63b8ff" d="M638.59,-110.1C673.99,-99.56 719.71,-80.34 698.39,-55.25 667.59,-19 520.97,-12.13 456.24,-10.88"/>
<polygon fill="#63b8ff" stroke="#63b8ff" points="456.56,-7.37 446.5,-10.71 456.45,-14.37 456.56,-7.37"/>
</a>
</g>
</g>
<!-- Node8&#45;&gt;Node5 -->
<g id="edge9_Node000008_Node000005" class="edge">
<title>Node8&#45;&gt;Node5</title>
<g id="a_edge9_Node000008_Node000005"><a xlink:title=" ">
<path fill="none" stroke="#63b8ff" d="M594.16,-110.28C580.82,-96.48 553.08,-69.88 524.39,-55.25 502.51,-44.09 440.92,-29.32 398.22,-19.89"/>
<polygon fill="#63b8ff" stroke="#63b8ff" points="399.05,-16.27 388.53,-17.56 397.56,-23.11 399.05,-16.27"/>
</a>
</g>
</g>
<!-- Node8&#45;&gt;Node7 -->
<g id="edge11_Node000008_Node000007" class="edge">
<title>Node8&#45;&gt;Node7</title>
<g id="a_edge11_Node000008_Node000007"><a xlink:title=" ">
<path fill="none" stroke="#63b8ff" d="M590.89,-110.07C571.98,-95.72 532.6,-68.06 494.39,-55.25 363.24,-11.26 320.33,-34.37 179.62,-19.45"/>
<polygon fill="#63b8ff" stroke="#63b8ff" points="180.2,-15.88 169.87,-18.26 179.43,-22.84 180.2,-15.88"/>
</a>
</g>
</g>
<!-- Node9 -->
<g id="Node000009" class="node">
<title>Node9</title>
<g id="a_Node000009"><a xlink:title=" ">
<polygon fill="#e0e0e0" stroke="#999999" points="466.01,-74.5 420.76,-74.5 420.76,-55.25 466.01,-55.25 466.01,-74.5"/>
<text text-anchor="middle" x="443.39" y="-61" font-family="Helvetica,sans-Serif" font-size="10.00">cstdint</text>
</a>
</g>
</g>
<!-- Node8&#45;&gt;Node9 -->
<g id="edge10_Node000008_Node000009" class="edge">
<title>Node8&#45;&gt;Node9</title>
<g id="a_edge10_Node000008_Node000009"><a xlink:title=" ">
<path fill="none" stroke="#63b8ff" d="M575.42,-110.09C548.11,-100.95 505.85,-86.79 476.53,-76.97"/>
<polygon fill="#63b8ff" stroke="#63b8ff" points="477.95,-73.42 467.36,-73.57 475.73,-80.06 477.95,-73.42"/>
</a>
</g>
</g>
<!-- Node10&#45;&gt;Node2 -->
<g id="edge18_Node000010_Node000002" class="edge">
<title>Node10&#45;&gt;Node2</title>
<g id="a_edge18_Node000010_Node000002"><a xlink:title=" ">
<path fill="none" stroke="#63b8ff" d="M248.8,-110.33C241.47,-102.82 230.72,-91.81 221.75,-82.63"/>
<polygon fill="#63b8ff" stroke="#63b8ff" points="224.65,-80.57 215.16,-75.86 219.65,-85.46 224.65,-80.57"/>
</a>
</g>
</g>
<!-- Node10&#45;&gt;Node4 -->
<g id="edge15_Node000010_Node000004" class="edge">
<title>Node10&#45;&gt;Node4</title>
<g id="a_edge15_Node000010_Node000004"><a xlink:title=" ">
<path fill="none" stroke="#63b8ff" d="M271.42,-110.06C300.4,-91.35 367.09,-48.28 402.43,-25.45"/>
<polygon fill="#63b8ff" stroke="#63b8ff" points="404.01,-27.95 410.51,-19.59 400.21,-22.07 404.01,-27.95"/>
</a>
</g>
</g>
<!-- Node10&#45;&gt;Node5 -->
<g id="edge16_Node000010_Node000005" class="edge">
<title>Node10&#45;&gt;Node5</title>
<g id="a_edge16_Node000010_Node000005"><a xlink:title=" ">
<path fill="none" stroke="#63b8ff" d="M262.59,-110.36C270.39,-97.56 285.97,-73.32 302.39,-55.25 311.95,-44.73 323.9,-34.32 333.94,-26.2"/>
<polygon fill="#63b8ff" stroke="#63b8ff" points="335.82,-28.39 341.5,-19.45 331.48,-22.89 335.82,-28.39"/>
</a>
</g>
</g>
<!-- Node10&#45;&gt;Node7 -->
<g id="edge17_Node000010_Node000007" class="edge">
<title>Node10&#45;&gt;Node7</title>
<g id="a_edge17_Node000010_Node000007"><a xlink:title=" ">
<path fill="none" stroke="#63b8ff" d="M212.01,-116.06C181.31,-111.56 142.18,-100.66 118.39,-74.5 107.64,-62.68 104.48,-44.54 103.81,-30.61"/>
<polygon fill="#63b8ff" stroke="#63b8ff" points="107.3,-30.7 103.74,-20.72 100.3,-30.74 107.3,-30.7"/>
</a>
</g>
</g>
<!-- Node10&#45;&gt;Node9 -->
<g id="edge14_Node000010_Node000009" class="edge">
<title>Node10&#45;&gt;Node9</title>
<g id="a_edge14_Node000010_Node000009"><a xlink:title=" ">
<path fill="none" stroke="#63b8ff" d="M288.94,-110.09C322.61,-100.45 375.73,-85.25 410.06,-75.42"/>
<polygon fill="#63b8ff" stroke="#63b8ff" points="410.85,-78.55 419.5,-72.43 408.92,-71.82 410.85,-78.55"/>
</a>
</g>
</g>
<!-- Node11&#45;&gt;Node2 -->
<g id="edge25_Node000011_Node000002" class="edge">
<title>Node11&#45;&gt;Node2</title>
<g id="a_edge25_Node000011_Node000002"><a xlink:title=" ">
<path fill="none" stroke="#63b8ff" d="M663.56,-111.54C660.8,-111.18 658.06,-110.83 655.39,-110.5 513.92,-93.15 346.8,-77.97 261.55,-70.6"/>
<polygon fill="#63b8ff" stroke="#63b8ff" points="262.08,-67.05 251.82,-69.68 261.48,-74.02 262.08,-67.05"/>
</a>
</g>
</g>
<!-- Node11&#45;&gt;Node4 -->
<g id="edge20_Node000011_Node000004" class="edge">
<title>Node11&#45;&gt;Node4</title>
<g id="a_edge20_Node000011_Node000004"><a xlink:title=" ">
<path fill="none" stroke="#63b8ff" d="M765.03,-110.49C808.49,-100.97 860.45,-83.19 835.39,-55.25 810.17,-27.14 548.05,-15.05 456.63,-11.67"/>
<polygon fill="#63b8ff" stroke="#63b8ff" points="456.99,-8.15 446.87,-11.29 456.74,-15.14 456.99,-8.15"/>
</a>
</g>
</g>
<!-- Node11&#45;&gt;Node5 -->
<g id="edge21_Node000011_Node000005" class="edge">
<title>Node11&#45;&gt;Node5</title>
<g id="a_edge21_Node000011_Node000005"><a xlink:title=" ">
<path fill="none" stroke="#63b8ff" d="M694.16,-110.05C663.68,-96.65 603.98,-71.41 551.39,-55.25 523.19,-46.58 446.94,-30.03 398,-19.7"/>
<polygon fill="#63b8ff" stroke="#63b8ff" points="398.9,-16.1 388.4,-17.47 397.46,-22.95 398.9,-16.1"/>
</a>
</g>
</g>
<!-- Node11&#45;&gt;Node7 -->
<g id="edge24_Node000011_Node000007" class="edge">
<title>Node11&#45;&gt;Node7</title>
<g id="a_edge24_Node000011_Node000007"><a xlink:title=" ">
<path fill="none" stroke="#63b8ff" d="M693.09,-110.01C658.99,-95.84 589.75,-68.75 528.39,-55.25 378.67,-22.32 335.2,-35.81 179.76,-19.47"/>
<polygon fill="#63b8ff" stroke="#63b8ff" points="180.19,-15.89 169.87,-18.3 179.44,-22.85 180.19,-15.89"/>
</a>
</g>
</g>
<!-- Node11&#45;&gt;Node9 -->
<g id="edge22_Node000011_Node000009" class="edge">
<title>Node11&#45;&gt;Node9</title>
<g id="a_edge22_Node000011_Node000009"><a xlink:title=" ">
<path fill="none" stroke="#63b8ff" d="M668.11,-110.03C613.81,-99.36 525.09,-81.93 476.98,-72.47"/>
<polygon fill="#63b8ff" stroke="#63b8ff" points="477.71,-68.86 467.23,-70.36 476.36,-75.72 477.71,-68.86"/>
</a>
</g>
</g>
<!-- Node12 -->
<g id="Node000012" class="node">
<title>Node12</title>
<g id="a_Node000012"><a xlink:title=" ">
<polygon fill="#e0e0e0" stroke="#999999" points="826.26,-74.5 788.51,-74.5 788.51,-55.25 826.26,-55.25 826.26,-74.5"/>
<text text-anchor="middle" x="807.39" y="-61" font-family="Helvetica,sans-Serif" font-size="10.00">array</text>
</a>
</g>
</g>
<!-- Node11&#45;&gt;Node12 -->
<g id="edge23_Node000011_Node000012" class="edge">
<title>Node11&#45;&gt;Node12</title>
<g id="a_edge23_Node000011_Node000012"><a xlink:title=" ">
<path fill="none" stroke="#63b8ff" d="M730.17,-110.09C744.46,-101.91 765.77,-89.71 782.38,-80.19"/>
<polygon fill="#63b8ff" stroke="#63b8ff" points="783.6,-82.96 790.54,-74.95 780.12,-76.88 783.6,-82.96"/>
</a>
</g>
</g>
<!-- Node13&#45;&gt;Node2 -->
<g id="edge31_Node000013_Node000002" class="edge">
<title>Node13&#45;&gt;Node2</title>
<g id="a_edge31_Node000013_Node000002"><a xlink:title=" ">
<path fill="none" stroke="#63b8ff" d="M119.86,-110.09C135.84,-101.83 159.74,-89.48 178.21,-79.93"/>
<polygon fill="#63b8ff" stroke="#63b8ff" points="179.56,-82.65 186.83,-74.95 176.34,-76.44 179.56,-82.65"/>
</a>
</g>
</g>
<!-- Node13&#45;&gt;Node4 -->
<g id="edge27_Node000013_Node000004" class="edge">
<title>Node13&#45;&gt;Node4</title>
<g id="a_edge27_Node000013_Node000004"><a xlink:title=" ">
<path fill="none" stroke="#63b8ff" d="M106.35,-110.36C113.27,-96.17 128.98,-68.42 151.39,-55.25 243.32,-1.24 286.21,-40.38 394.52,-19.27"/>
<polygon fill="#63b8ff" stroke="#63b8ff" points="395.13,-22.5 404.2,-17.03 393.7,-15.65 395.13,-22.5"/>
</a>
</g>
</g>
<!-- Node13&#45;&gt;Node5 -->
<g id="edge28_Node000013_Node000005" class="edge">
<title>Node13&#45;&gt;Node5</title>
<g id="a_edge28_Node000013_Node000005"><a xlink:title=" ">
<path fill="none" stroke="#63b8ff" d="M94.45,-110.26C83.48,-96.9 66.5,-71.46 80.39,-55.25 112.63,-17.65 246.07,-27.36 310.79,-19.33"/>
<polygon fill="#63b8ff" stroke="#63b8ff" points="310.94,-22.7 320.3,-17.75 309.89,-15.78 310.94,-22.7"/>
</a>
</g>
</g>
<!-- Node13&#45;&gt;Node7 -->
<g id="edge30_Node000013_Node000007" class="edge">
<title>Node13&#45;&gt;Node7</title>
<g id="a_edge30_Node000013_Node000007"><a xlink:title=" ">
<path fill="none" stroke="#63b8ff" d="M62.62,-110.04C28.35,-100.19 -13.08,-82.17 4.39,-55.25 14.2,-40.13 30.46,-30.09 47.05,-23.43"/>
<polygon fill="#63b8ff" stroke="#63b8ff" points="48.15,-26.4 56.37,-19.72 45.77,-19.81 48.15,-26.4"/>
</a>
</g>
</g>
<!-- Node13&#45;&gt;Node9 -->
<g id="edge29_Node000013_Node000009" class="edge">
<title>Node13&#45;&gt;Node9</title>
<g id="a_edge29_Node000013_Node000009"><a xlink:title=" ">
<path fill="none" stroke="#63b8ff" d="M153.07,-111.21C223.66,-100.19 349.66,-80.51 409.73,-71.13"/>
<polygon fill="#63b8ff" stroke="#63b8ff" points="410.16,-74.45 419.5,-69.45 409.08,-67.53 410.16,-74.45"/>
</a>
</g>
</g>
<!-- Node14&#45;&gt;Node2 -->
<g id="edge37_Node000014_Node000002" class="edge">
<title>Node14&#45;&gt;Node2</title>
<g id="a_edge37_Node000014_Node000002"><a xlink:title=" ">
<path fill="none" stroke="#63b8ff" d="M441.72,-110.03C391.7,-100.69 313.92,-86.15 261.38,-76.34"/>
<polygon fill="#63b8ff" stroke="#63b8ff" points="262.04,-72.71 251.57,-74.32 260.75,-79.59 262.04,-72.71"/>
</a>
</g>
</g>
<!-- Node14&#45;&gt;Node4 -->
<g id="edge33_Node000014_Node000004" class="edge">
<title>Node14&#45;&gt;Node4</title>
<g id="a_edge33_Node000014_Node000004"><a xlink:title=" ">
<path fill="none" stroke="#63b8ff" d="M526.6,-110.01C560.66,-99.65 603.76,-80.8 584.39,-55.25 568.96,-34.9 498,-21.26 456.27,-14.85"/>
<polygon fill="#63b8ff" stroke="#63b8ff" points="457,-11.27 446.59,-13.27 455.97,-18.19 457,-11.27"/>
</a>
</g>
</g>
<!-- Node14&#45;&gt;Node5 -->
<g id="edge34_Node000014_Node000005" class="edge">
<title>Node14&#45;&gt;Node5</title>
<g id="a_edge34_Node000014_Node000005"><a xlink:title=" ">
<path fill="none" stroke="#63b8ff" d="M497.19,-110.4C506.57,-97.23 520.99,-72.01 508.39,-55.25 501.59,-46.2 441.22,-30.63 398.13,-20.48"/>
<polygon fill="#63b8ff" stroke="#63b8ff" points="399.12,-16.88 388.59,-18.02 397.53,-23.7 399.12,-16.88"/>
</a>
</g>
</g>
<!-- Node14&#45;&gt;Node7 -->
<g id="edge36_Node000014_Node000007" class="edge">
<title>Node14&#45;&gt;Node7</title>
<g id="a_edge36_Node000014_Node000007"><a xlink:title=" ">
<path fill="none" stroke="#63b8ff" d="M491.2,-110.13C491.92,-96.11 491.01,-69.23 475.39,-55.25 474.7,-54.64 287.97,-32.4 179.73,-19.55"/>
<polygon fill="#63b8ff" stroke="#63b8ff" points="180.21,-15.97 169.86,-18.26 179.38,-22.92 180.21,-15.97"/>
</a>
</g>
</g>
<!-- Node14&#45;&gt;Node9 -->
<g id="edge35_Node000014_Node000009" class="edge">
<title>Node14&#45;&gt;Node9</title>
<g id="a_edge35_Node000014_Node000009"><a xlink:title=" ">
<path fill="none" stroke="#63b8ff" d="M482.63,-110.33C476.07,-102.9 466.48,-92.04 458.43,-82.91"/>
<polygon fill="#63b8ff" stroke="#63b8ff" points="461.56,-81.04 452.32,-75.86 456.31,-85.67 461.56,-81.04"/>
</a>
</g>
</g>
<!-- Node15&#45;&gt;Node2 -->
<g id="edge43_Node000015_Node000002" class="edge">
<title>Node15&#45;&gt;Node2</title>
<g id="a_edge43_Node000015_Node000002"><a xlink:title=" ">
<path fill="none" stroke="#63b8ff" d="M343.23,-110.09C315.92,-101.33 274.28,-87.98 243.92,-78.23"/>
<polygon fill="#63b8ff" stroke="#63b8ff" points="245.28,-74.67 234.69,-74.95 243.14,-81.34 245.28,-74.67"/>
</a>
</g>
</g>
<!-- Node15&#45;&gt;Node4 -->
<g id="edge40_Node000015_Node000004" class="edge">
<title>Node15&#45;&gt;Node4</title>
<g id="a_edge40_Node000015_Node000004"><a xlink:title=" ">
<path fill="none" stroke="#63b8ff" d="M375.81,-110.25C384.59,-92.6 404.4,-52.8 416.15,-29.2"/>
<polygon fill="#63b8ff" stroke="#63b8ff" points="419.59,-31.14 420.91,-20.63 413.32,-28.02 419.59,-31.14"/>
</a>
</g>
</g>
<!-- Node15&#45;&gt;Node5 -->
<g id="edge41_Node000015_Node000005" class="edge">
<title>Node15&#45;&gt;Node5</title>
<g id="a_edge41_Node000015_Node000005"><a xlink:title=" ">
<path fill="none" stroke="#63b8ff" d="M370,-110.25C367.28,-92.92 361.22,-54.23 357.5,-30.49"/>
<polygon fill="#63b8ff" stroke="#63b8ff" points="360.81,-29.96 355.8,-20.63 353.89,-31.05 360.81,-29.96"/>
</a>
</g>
</g>
<!-- Node15&#45;&gt;Node7 -->
<g id="edge42_Node000015_Node000007" class="edge">
<title>Node15&#45;&gt;Node7</title>
<g id="a_edge42_Node000015_Node000007"><a xlink:title=" ">
<path fill="none" stroke="#63b8ff" d="M320.7,-110.82C260.24,-100.61 165.53,-83.53 151.39,-74.5 134.21,-63.53 121.18,-43.88 113.25,-29.26"/>
<polygon fill="#63b8ff" stroke="#63b8ff" points="116.04,-28.03 108.39,-20.71 109.8,-31.21 116.04,-28.03"/>
</a>
</g>
</g>
<!-- Node15&#45;&gt;Node9 -->
<g id="edge39_Node000015_Node000009" class="edge">
<title>Node15&#45;&gt;Node9</title>
<g id="a_edge39_Node000015_Node000009"><a xlink:title=" ">
<path fill="none" stroke="#63b8ff" d="M383.6,-110.09C394.32,-102.16 410.13,-90.47 422.8,-81.1"/>
<polygon fill="#63b8ff" stroke="#63b8ff" points="424.4,-83.54 430.36,-74.77 420.24,-77.91 424.4,-83.54"/>
</a>
</g>
</g>
</g>
</svg>
