<?xml version="1.0" encoding="UTF-8" standalone="no"?>
<!DOCTYPE svg PUBLIC "-//W3C//DTD SVG 1.1//EN"
 "http://www.w3.org/Graphics/SVG/1.1/DTD/svg11.dtd">
<!-- Generated by graphviz version 8.0.5 (20230430.1635)
 -->
<!-- Title: lhashes_sha512.h Pages: 1 -->
<svg width="441pt" height="138pt"
 viewBox="0.00 0.00 440.88 137.75" xmlns="http://www.w3.org/2000/svg" xmlns:xlink="http://www.w3.org/1999/xlink">
<g id="graph0" class="graph" transform="scale(1 1) rotate(0) translate(4 133.75)">
<title>lhashes_sha512.h</title>
<!-- Node1 -->
<g id="Node000001" class="node">
<title>Node1</title>
<g id="a_Node000001"><a xlink:title="This file defines the hash::SHA512 class.">
<polygon fill="#999999" stroke="#666666" points="159,-129.75 64.25,-129.75 64.25,-110.5 159,-110.5 159,-129.75"/>
<text text-anchor="middle" x="111.62" y="-116.25" font-family="Helvetica,sans-Serif" font-size="10.00">lhashes_sha512.h</text>
</a>
</g>
</g>
<!-- Node2 -->
<g id="Node000002" class="node">
<title>Node2</title>
<g id="a_Node000002"><a xlink:title=" ">
<polygon fill="#e0e0e0" stroke="#999999" points="45.25,-74.5 0,-74.5 0,-55.25 45.25,-55.25 45.25,-74.5"/>
<text text-anchor="middle" x="22.62" y="-61" font-family="Helvetica,sans-Serif" font-size="10.00">cstdint</text>
</a>
</g>
</g>
<!-- Node1&#45;&gt;Node2 -->
<g id="edge1_Node000001_Node000002" class="edge">
<title>Node1&#45;&gt;Node2</title>
<g id="a_edge1_Node000001_Node000002"><a xlink:title=" ">
<path fill="none" stroke="#63b8ff" d="M96.53,-110.09C82.97,-101.98 62.84,-89.93 47,-80.46"/>
<polygon fill="#63b8ff" stroke="#63b8ff" points="49.18,-77.08 38.8,-74.95 45.58,-83.09 49.18,-77.08"/>
</a>
</g>
</g>
<!-- Node3 -->
<g id="Node000003" class="node">
<title>Node3</title>
<g id="a_Node000003"><a xlink:title=" ">
<polygon fill="#e0e0e0" stroke="#999999" points="67.62,-19.25 27.62,-19.25 27.62,0 67.62,0 67.62,-19.25"/>
<text text-anchor="middle" x="47.62" y="-5.75" font-family="Helvetica,sans-Serif" font-size="10.00">string</text>
</a>
</g>
</g>
<!-- Node1&#45;&gt;Node3 -->
<g id="edge2_Node000001_Node000003" class="edge">
<title>Node1&#45;&gt;Node3</title>
<g id="a_edge2_Node000001_Node000003"><a xlink:title=" ">
<path fill="none" stroke="#63b8ff" d="M106.39,-110.25C95.93,-92.52 72.29,-52.44 58.39,-28.88"/>
<polygon fill="#63b8ff" stroke="#63b8ff" points="61.03,-27.46 52.93,-20.63 55,-31.02 61.03,-27.46"/>
</a>
</g>
</g>
<!-- Node4 -->
<g id="Node000004" class="node">
<title>Node4</title>
<g id="a_Node000004"><a xlink:title=" ">
<polygon fill="#e0e0e0" stroke="#999999" points="151.38,-19.25 85.88,-19.25 85.88,0 151.38,0 151.38,-19.25"/>
<text text-anchor="middle" x="118.62" y="-5.75" font-family="Helvetica,sans-Serif" font-size="10.00">string_view</text>
</a>
</g>
</g>
<!-- Node1&#45;&gt;Node4 -->
<g id="edge3_Node000001_Node000004" class="edge">
<title>Node1&#45;&gt;Node4</title>
<g id="a_edge3_Node000001_Node000004"><a xlink:title=" ">
<path fill="none" stroke="#63b8ff" d="M112.2,-110.25C113.32,-92.92 115.81,-54.23 117.34,-30.49"/>
<polygon fill="#63b8ff" stroke="#63b8ff" points="120.89,-30.83 118.04,-20.63 113.91,-30.38 120.89,-30.83"/>
</a>
</g>
</g>
<!-- Node5 -->
<g id="Node000005" class="node">
<title>Node5</title>
<g id="a_Node000005"><a xlink:title=" ">
<polygon fill="#e0e0e0" stroke="#999999" points="432.88,-19.25 304.38,-19.25 304.38,0 432.88,0 432.88,-19.25"/>
<text text-anchor="middle" x="368.62" y="-5.75" font-family="Helvetica,sans-Serif" font-size="10.00">lhashes/lhashes_Export.h</text>
</a>
</g>
</g>
<!-- Node1&#45;&gt;Node5 -->
<g id="edge4_Node000001_Node000005" class="edge">
<title>Node1&#45;&gt;Node5</title>
<g id="a_edge4_Node000001_Node000005"><a xlink:title=" ">
<path fill="none" stroke="#63b8ff" d="M157.81,-110.07C190.26,-102.78 234.2,-91.01 270.62,-74.5 299.42,-61.44 329.44,-40.64 348.54,-26.35"/>
<polygon fill="#63b8ff" stroke="#63b8ff" points="350.4,-28.57 356.23,-19.73 346.16,-23 350.4,-28.57"/>
</a>
</g>
</g>
<!-- Node6 -->
<g id="Node000006" class="node">
<title>Node6</title>
<g id="a_Node000006"><a xlink:href="lhashes__hash_8h.html" target="_top" xlink:title="This file defines the hash::Hasher class and the hash::hash() free functions.">
<polygon fill="white" stroke="#666666" points="261.12,-74.5 140.12,-74.5 140.12,-55.25 261.12,-55.25 261.12,-74.5"/>
<text text-anchor="middle" x="200.62" y="-61" font-family="Helvetica,sans-Serif" font-size="10.00">lhashes/lhashes_hash.h</text>
</a>
</g>
</g>
<!-- Node1&#45;&gt;Node6 -->
<g id="edge5_Node000001_Node000006" class="edge">
<title>Node1&#45;&gt;Node6</title>
<g id="a_edge5_Node000001_Node000006"><a xlink:title=" ">
<path fill="none" stroke="#63b8ff" d="M126.72,-110.09C140.28,-101.98 160.41,-89.93 176.25,-80.46"/>
<polygon fill="#63b8ff" stroke="#63b8ff" points="177.67,-83.09 184.45,-74.95 174.07,-77.08 177.67,-83.09"/>
</a>
</g>
</g>
<!-- Node6&#45;&gt;Node3 -->
<g id="edge7_Node000006_Node000003" class="edge">
<title>Node6&#45;&gt;Node3</title>
<g id="a_edge7_Node000006_Node000003"><a xlink:title=" ">
<path fill="none" stroke="#63b8ff" d="M174.67,-54.84C147.91,-45.53 106.21,-31.01 77.95,-21.18"/>
<polygon fill="#63b8ff" stroke="#63b8ff" points="79.43,-17.64 68.83,-17.66 77.13,-24.25 79.43,-17.64"/>
</a>
</g>
</g>
<!-- Node6&#45;&gt;Node4 -->
<g id="edge8_Node000006_Node000004" class="edge">
<title>Node6&#45;&gt;Node4</title>
<g id="a_edge8_Node000006_Node000004"><a xlink:title=" ">
<path fill="none" stroke="#63b8ff" d="M186.71,-54.84C174.35,-46.81 156.02,-34.91 141.5,-25.48"/>
<polygon fill="#63b8ff" stroke="#63b8ff" points="143.9,-22.21 133.6,-19.7 140.08,-28.08 143.9,-22.21"/>
</a>
</g>
</g>
<!-- Node6&#45;&gt;Node5 -->
<g id="edge10_Node000006_Node000005" class="edge">
<title>Node6&#45;&gt;Node5</title>
<g id="a_edge10_Node000006_Node000005"><a xlink:title=" ">
<path fill="none" stroke="#63b8ff" d="M229.12,-54.84C256.76,-46.08 298.9,-32.73 329.63,-22.98"/>
<polygon fill="#63b8ff" stroke="#63b8ff" points="330.51,-26.06 338.99,-19.7 328.4,-19.39 330.51,-26.06"/>
</a>
</g>
</g>
<!-- Node7 -->
<g id="Node000007" class="node">
<title>Node7</title>
<g id="a_Node000007"><a xlink:title=" ">
<polygon fill="#e0e0e0" stroke="#999999" points="286.75,-19.25 238.5,-19.25 238.5,0 286.75,0 286.75,-19.25"/>
<text text-anchor="middle" x="262.62" y="-5.75" font-family="Helvetica,sans-Serif" font-size="10.00">cstddef</text>
</a>
</g>
</g>
<!-- Node6&#45;&gt;Node7 -->
<g id="edge6_Node000006_Node000007" class="edge">
<title>Node6&#45;&gt;Node7</title>
<g id="a_edge6_Node000006_Node000007"><a xlink:title=" ">
<path fill="none" stroke="#63b8ff" d="M211.14,-54.84C220.1,-47.15 233.2,-35.9 243.94,-26.68"/>
<polygon fill="#63b8ff" stroke="#63b8ff" points="245.96,-28.7 251.26,-19.52 241.4,-23.39 245.96,-28.7"/>
</a>
</g>
</g>
<!-- Node8 -->
<g id="Node000008" class="node">
<title>Node8</title>
<g id="a_Node000008"><a xlink:title=" ">
<polygon fill="#e0e0e0" stroke="#999999" points="220.25,-19.25 169,-19.25 169,0 220.25,0 220.25,-19.25"/>
<text text-anchor="middle" x="194.62" y="-5.75" font-family="Helvetica,sans-Serif" font-size="10.00">memory</text>
</a>
</g>
</g>
<!-- Node6&#45;&gt;Node8 -->
<g id="edge9_Node000006_Node000008" class="edge">
<title>Node6&#45;&gt;Node8</title>
<g id="a_edge9_Node000006_Node000008"><a xlink:title=" ">
<path fill="none" stroke="#63b8ff" d="M199.63,-55.08C198.88,-48.42 197.82,-38.99 196.87,-30.53"/>
<polygon fill="#63b8ff" stroke="#63b8ff" points="200.24,-30.15 195.64,-20.61 193.28,-30.94 200.24,-30.15"/>
</a>
</g>
</g>
</g>
</svg>
